<svg width="24" height="24" viewBox="0 0 24 24" fill="none" xmlns="http://www.w3.org/2000/svg">
<g clip-path="url(#clip0_38523_473)">
<path fill-rule="evenodd" clip-rule="evenodd" d="M5 4C3.34315 4 2 5.34315 2 7V7.875V17C2 18.6569 3.34315 20 5 20H11V18H5C4.44772 18 4 17.5523 4 17V8.875H7.5H11H19C19.5523 8.875 20 9.32272 20 9.875V10H22V9.875C22 8.21815 20.6569 6.875 19 6.875H11.4556L9.85256 5.03146C9.28278 4.37623 8.45706 4 7.58874 4H5ZM8.34334 6.34382L8.80524 6.875H7.5H4.00774C4.06925 6.38171 4.49005 6 5 6H7.58874C7.87818 6 8.15342 6.12541 8.34334 6.34382Z" fill="#64748B"/>
<path d="M13.245 18H11.5973L14.108 10.7273H16.0895L18.5966 18H16.9489L15.1271 12.3892H15.0703L13.245 18ZM13.142 15.1413H17.0341V16.3416H13.142V15.1413ZM20.9989 18.103C20.6509 18.103 20.3408 18.0426 20.0685 17.9219C19.7963 17.7988 19.5808 17.6177 19.4222 17.3786C19.266 17.1371 19.1879 16.8364 19.1879 16.4766C19.1879 16.1735 19.2435 15.919 19.3548 15.7131C19.466 15.5071 19.6175 15.3414 19.8093 15.2159C20.0011 15.0904 20.2189 14.9957 20.4627 14.9318C20.7089 14.8679 20.967 14.8229 21.2369 14.7969C21.5541 14.7637 21.8098 14.733 22.0039 14.7045C22.198 14.6738 22.3389 14.6288 22.4265 14.5696C22.5141 14.5104 22.5579 14.4228 22.5579 14.3068V14.2855C22.5579 14.0606 22.4869 13.8866 22.3448 13.7635C22.2051 13.6404 22.0063 13.5788 21.7482 13.5788C21.476 13.5788 21.2594 13.6392 21.0984 13.7599C20.9374 13.8783 20.8308 14.0275 20.7788 14.2074L19.3796 14.0938C19.4506 13.7623 19.5903 13.4759 19.7987 13.2344C20.007 12.9905 20.2757 12.8035 20.6048 12.6733C20.9362 12.5407 21.3197 12.4744 21.7553 12.4744C22.0584 12.4744 22.3484 12.5099 22.6254 12.581C22.9047 12.652 23.1521 12.7621 23.3675 12.9112C23.5853 13.0604 23.757 13.2521 23.8825 13.4865C24.0079 13.7185 24.0707 13.9967 24.0707 14.321V18H22.636V17.2436H22.5934C22.5058 17.4141 22.3886 17.5644 22.2418 17.6946C22.0951 17.8224 21.9187 17.9231 21.7127 17.9964C21.5067 18.0675 21.2688 18.103 20.9989 18.103ZM21.4322 17.0589C21.6547 17.0589 21.8512 17.0152 22.0217 16.9276C22.1921 16.8376 22.3259 16.7169 22.4229 16.5653C22.52 16.4138 22.5685 16.2422 22.5685 16.0504V15.4716C22.5212 15.5024 22.4561 15.5308 22.3732 15.5568C22.2927 15.5805 22.2016 15.603 22.0998 15.6243C21.998 15.6432 21.8962 15.661 21.7944 15.6776C21.6926 15.6918 21.6003 15.7048 21.5174 15.7166C21.3398 15.7427 21.1848 15.7841 21.0522 15.8409C20.9196 15.8977 20.8166 15.9747 20.7433 16.0717C20.6699 16.1664 20.6332 16.2848 20.6332 16.4268C20.6332 16.6328 20.7077 16.7902 20.8569 16.8991C21.0084 17.0057 21.2002 17.0589 21.4322 17.0589Z" fill="#A1A1AA"/>
</g>
<defs>
<clipPath id="clip0_38523_473">
<rect width="24" height="24" fill="white"/>
</clipPath>
</defs>
</svg>
