<svg width="24" height="24" viewBox="0 0 24 24" fill="none" xmlns="http://www.w3.org/2000/svg">
<path fill-rule="evenodd" clip-rule="evenodd" d="M5 4C3.34315 4 2 5.34315 2 7V7.875V17C2 18.6569 3.34315 20 5 20H13V18H5C4.44772 18 4 17.5523 4 17V8.875H7.5H11H19C19.5523 8.875 20 9.32272 20 9.875V10H22V9.875C22 8.21815 20.6569 6.875 19 6.875H11.4556L9.85256 5.03146C9.28278 4.37623 8.45706 4 7.58874 4H5ZM8.34334 6.34382L8.80524 6.875H7.5H4.00774C4.06925 6.38171 4.49005 6 5 6H7.58874C7.87818 6 8.15342 6.12541 8.34334 6.34382Z" fill="#64748B"/>
<circle cx="21" cy="18" r="2" fill="#2563EB"/>
<rect x="14" y="11" width="4" height="4" rx="1" fill="#0D9488"/>
<path d="M16 16.5L17.7321 19.5H14.2679L16 16.5Z" fill="#22D3EE"/>
<path d="M20.3075 11.8713C20.5454 11.2285 21.4546 11.2285 21.6925 11.8713C21.7672 12.0734 21.9266 12.2328 22.1287 12.3075C22.7715 12.5454 22.7715 13.4546 22.1287 13.6925C21.9266 13.7672 21.7672 13.9266 21.6925 14.1287C21.4546 14.7715 20.5454 14.7715 20.3075 14.1287C20.2328 13.9266 20.0734 13.7672 19.8713 13.6925C19.2285 13.4546 19.2285 12.5454 19.8713 12.3075C20.0734 12.2328 20.2328 12.0734 20.3075 11.8713Z" fill="#C084FC"/>
</svg>
