<svg width="24" height="24" viewBox="0 0 24 24" fill="none" xmlns="http://www.w3.org/2000/svg">
<path fill-rule="evenodd" clip-rule="evenodd" d="M5 4C3.34315 4 2 5.34315 2 7V7.875V17C2 18.6569 3.34315 20 5 20H13V18H5C4.44772 18 4 17.5523 4 17V8.875H7.5H11H19C19.5523 8.875 20 9.32272 20 9.875V10H22V9.875C22 8.21815 20.6569 6.875 19 6.875H11.4556L9.85256 5.03146C9.28278 4.37623 8.45706 4 7.58874 4H5ZM8.34334 6.34382L8.80524 6.875H7.5H4.00774C4.06925 6.38171 4.49005 6 5 6H7.58874C7.87818 6 8.15342 6.12541 8.34334 6.34382Z" fill="#64748B"/>
<path d="M15 12.5C15 11.6716 15.6716 11 16.5 11C16.7761 11 17 11.2239 17 11.5C17 11.7761 16.7761 12 16.5 12C16.2239 12 16 12.2239 16 12.5V14.4692C16 14.8633 15.8464 15.2285 15.5898 15.5C15.8464 15.7715 16 16.1366 16 16.5308V18.5C16 18.7762 16.2239 19 16.5 19C16.7761 19 17 19.2238 17 19.5C17 19.7761 16.7761 20 16.5 20C15.6716 20 15 19.3285 15 18.5V16.5308C15 16.3013 14.8438 16.1013 14.6213 16.0457L14.3787 15.9851C14.1562 15.9295 14 15.7294 14 15.5C14 15.2705 14.1562 15.0705 14.3787 15.0149L14.6213 14.9543C14.8438 14.8986 15 14.6986 15 14.4692V12.5ZM23 12.5C23 11.6716 22.3285 11 21.5 11C21.2239 11 21 11.2239 21 11.5C21 11.7761 21.2239 12 21.5 12C21.7762 12 22 12.2239 22 12.5V14.4692C22 14.8633 22.1536 15.2285 22.4102 15.5C22.1536 15.7715 22 16.1366 22 16.5308V18.5C22 18.7762 21.7762 19 21.5 19C21.2239 19 21 19.2238 21 19.5C21 19.7761 21.2239 20 21.5 20C22.3285 20 23 19.3285 23 18.5V16.5308C23 16.3013 23.1562 16.1013 23.3788 16.0457L23.6213 15.9851C23.8439 15.9295 24 15.7294 24 15.5C24 15.2705 23.8439 15.0705 23.6213 15.0149L23.3788 14.9543C23.1562 14.8986 23 14.6986 23 14.4692V12.5Z" fill="#F59E0B"/>
</svg>
