<svg width="24" height="24" viewBox="0 0 24 24" fill="none" xmlns="http://www.w3.org/2000/svg">
<path fill-rule="evenodd" clip-rule="evenodd" d="M5 4C3.34315 4 2 5.34315 2 7V17C2 18.6569 3.34315 20 5 20H13V18H5C4.44772 18 4 17.5523 4 17V7C4 6.44772 4.44772 6 5 6H7.78388C8.01539 6 8.23973 6.08033 8.41862 6.22727L10.8119 8.19318C11.3486 8.63402 12.0216 8.875 12.7161 8.875H19C19.5523 8.875 20 9.32272 20 9.875V10H22V9.875C22 8.21815 20.6569 6.875 19 6.875H12.7161C12.4846 6.875 12.2603 6.79467 12.0814 6.64773L9.6881 4.68182C9.15142 4.24098 8.47841 4 7.78388 4H5Z" fill="#64748B"/>
<path d="M17.55 15.5V15.5001C17.5501 15.752 17.6502 15.9936 17.8283 16.1717C17.8283 16.1717 17.8283 16.1717 17.8284 16.1718L19.1783 17.5217L19.1782 17.5218L19.1845 17.5278C19.3637 17.7008 19.6036 17.7966 19.8527 17.7944C20.1018 17.7923 20.3401 17.6924 20.5162 17.5162C20.6924 17.3401 20.7923 17.1018 20.7944 16.8527C20.7966 16.6036 20.7008 16.3637 20.5278 16.1845L20.5278 16.1844L20.5217 16.1783L19.45 15.1066V13.25C19.45 12.998 19.3499 12.7564 19.1718 12.5782C18.9936 12.4001 18.752 12.3 18.5 12.3C18.248 12.3 18.0064 12.4001 17.8282 12.5782C17.6501 12.7564 17.55 12.998 17.55 13.25V15.5ZM18.5 11.5C20.7092 11.5 22.5 13.2908 22.5 15.5C22.5 17.7092 20.7092 19.5 18.5 19.5C16.2908 19.5 14.5 17.7092 14.5 15.5C14.5 13.2908 16.2908 11.5 18.5 11.5Z" fill="#A1A1AA" stroke="#A1A1AA"/>
</svg>
