<svg width="24" height="24" viewBox="0 0 24 24" fill="none" xmlns="http://www.w3.org/2000/svg">
<path fill-rule="evenodd" clip-rule="evenodd" d="M5 4C3.34315 4 2 5.34315 2 7V7.875V17C2 18.6569 3.34315 20 5 20H13V18H5C4.44772 18 4 17.5523 4 17V8.875H7.5H11H19C19.5523 8.875 20 9.32272 20 9.875V10H22V9.875C22 8.21815 20.6569 6.875 19 6.875H11.4556L9.85256 5.03146C9.28278 4.37623 8.45706 4 7.58874 4H5ZM8.34334 6.34382L8.80524 6.875H7.5H4.00774C4.06925 6.38171 4.49005 6 5 6H7.58874C7.87818 6 8.15342 6.12541 8.34334 6.34382Z" fill="#64748B"/>
<path fill-rule="evenodd" clip-rule="evenodd" d="M16 12C15.4477 12 15 12.4477 15 13V14.5556C15 15.1078 15.4477 15.5556 16 15.5556H17.5556C18.1078 15.5556 18.5556 15.1078 18.5556 14.5556V13C18.5556 12.4477 18.1078 12 17.5556 12H16ZM16 16.4444C15.4477 16.4444 15 16.8922 15 17.4444V19C15 19.5523 15.4477 20 16 20H17.5556C18.1078 20 18.5556 19.5523 18.5556 19V17.4444C18.5556 16.8922 18.1078 16.4444 17.5556 16.4444H16ZM19.4444 13C19.4444 12.4477 19.8922 12 20.4444 12H22C22.5523 12 23 12.4477 23 13V14.5556C23 15.1078 22.5523 15.5556 22 15.5556H20.4444C19.8922 15.5556 19.4444 15.1078 19.4444 14.5556V13ZM20.4444 16.4444C19.8922 16.4444 19.4444 16.8922 19.4444 17.4444V19C19.4444 19.5523 19.8922 20 20.4444 20H22C22.5523 20 23 19.5523 23 19V17.4444C23 16.8922 22.5523 16.4444 22 16.4444H20.4444Z" fill="#4ADE80"/>
</svg>
