<svg width="24" height="24" viewBox="0 0 24 24" fill="none" xmlns="http://www.w3.org/2000/svg">
<path fill-rule="evenodd" clip-rule="evenodd" d="M5 4C3.34315 4 2 5.34315 2 7V7.875V17C2 18.6569 3.34315 20 5 20H13V18H5C4.44772 18 4 17.5523 4 17V8.875H7.5H11H19C19.5523 8.875 20 9.32272 20 9.875V10H22V9.875C22 8.21815 20.6569 6.875 19 6.875H11.4556L9.85256 5.03146C9.28278 4.37623 8.45706 4 7.58874 4H5ZM8.34334 6.34382L8.80524 6.875H7.5H4.00774C4.06925 6.38171 4.49005 6 5 6H7.58874C7.87818 6 8.15342 6.12541 8.34334 6.34382Z" fill="#64748B"/>
<path d="M18.0909 11L14 12.8182V15.5455C14 18.0682 15.7455 20.4273 18.0909 21C20.4364 20.4273 22.1818 18.0682 22.1818 15.5455V12.8182L18.0909 11ZM18.0909 12.7727C18.3606 12.7727 18.6243 12.8527 18.8485 13.0025C19.0728 13.1524 19.2475 13.3654 19.3507 13.6145C19.454 13.8637 19.481 14.1379 19.4283 14.4024C19.3757 14.6669 19.2459 14.9099 19.0551 15.1006C18.8644 15.2913 18.6215 15.4212 18.3569 15.4738C18.0924 15.5264 17.8182 15.4994 17.5691 15.3962C17.3199 15.293 17.1069 15.1182 16.9571 14.894C16.8072 14.6697 16.7273 14.4061 16.7273 14.1364C16.7273 13.7747 16.8709 13.4279 17.1267 13.1721C17.3824 12.9164 17.7293 12.7727 18.0909 12.7727ZM18.0909 16.3636C19 16.3636 20.8182 16.8591 20.8182 17.7636C20.5196 18.2137 20.1144 18.5829 19.6385 18.8383C19.1626 19.0936 18.631 19.2273 18.0909 19.2273C17.5508 19.2273 17.0192 19.0936 16.5433 18.8383C16.0674 18.5829 15.6622 18.2137 15.3636 17.7636C15.3636 16.8591 17.1818 16.3636 18.0909 16.3636Z" fill="#64748B"/>
</svg>
