<svg width="24" height="24" viewBox="0 0 24 24" fill="none" xmlns="http://www.w3.org/2000/svg">
<path fill-rule="evenodd" clip-rule="evenodd" d="M5 4C3.34315 4 2 5.34315 2 7V17C2 18.6569 3.34315 20 5 20H13V18H5C4.44772 18 4 17.5523 4 17V7C4 6.44772 4.44772 6 5 6H7.78388C8.01539 6 8.23973 6.08033 8.41862 6.22727L10.8119 8.19318C11.3486 8.63402 12.0216 8.875 12.7161 8.875H19C19.5523 8.875 20 9.32272 20 9.875V10H22V9.875C22 8.21815 20.6569 6.875 19 6.875H12.7161C12.4846 6.875 12.2603 6.79467 12.0814 6.64773L9.6881 4.68182C9.15142 4.24098 8.47841 4 7.78388 4H5Z" fill="#64748B"/>
<path d="M14 18.8671C14.0179 19.0879 14.0958 19.3099 14.2992 19.6077C14.5408 19.9613 14.9558 20.1554 15.2587 19.8439C15.4629 19.6335 17.6729 15.772 18.7379 14.3084C18.7671 14.2664 18.806 14.2322 18.8512 14.2085C18.8965 14.1849 18.9468 14.1725 18.9979 14.1725C19.049 14.1725 19.0993 14.1849 19.1446 14.2085C19.1899 14.2322 19.2288 14.2664 19.2579 14.3084C20.3229 15.772 22.5329 19.6335 22.7371 19.8439C23.04 20.1554 23.455 19.9613 23.6967 19.6077C23.9342 19.2599 24 19.0162 24 18.7555C24 18.5781 20.5583 12.1754 20.2117 11.6423C19.8783 11.13 19.7767 11.0183 19.2129 11H18.7829C18.2192 11.0183 18.1175 11.1295 17.7838 11.6423C17.4446 12.1642 14.1375 18.3148 14 18.7363V18.8671Z" fill="#A1A1AA"/>
</svg>
