<svg width="24" height="24" viewBox="0 0 24 24" fill="none" xmlns="http://www.w3.org/2000/svg">
<path fill-rule="evenodd" clip-rule="evenodd" d="M5 4C3.34315 4 2 5.34315 2 7V7.875V17C2 18.6569 3.34315 20 5 20H11V18H5C4.44772 18 4 17.5523 4 17V8.875H7.5H11H19C19.5523 8.875 20 9.32272 20 9.875V10H22V9.875C22 8.21815 20.6569 6.875 19 6.875H11.4556L9.85256 5.03146C9.28278 4.37623 8.45706 4 7.58874 4H5ZM8.34334 6.34382L8.80524 6.875H7.5H4.00774C4.06925 6.38171 4.49005 6 5 6H7.58874C7.87818 6 8.15342 6.12541 8.34334 6.34382Z" fill="#64748B"/>
<path d="M14.7248 14.3162L14.4306 14.3841C13.8558 14.5167 13.3985 14.8152 13.0415 15.293C12.6805 15.7762 12.5 16.3221 12.5 16.9482L14.7248 14.3162ZM14.7248 14.3162L14.8017 14.0243M14.7248 14.3162L14.8017 14.0243M14.8017 14.0243C15.0021 13.2638 15.3969 12.6601 15.9903 12.1951C16.5843 11.7295 17.2486 11.5 18 11.5C18.9282 11.5 19.7011 11.8272 20.3481 12.4944L20.7071 12.1464M14.8017 14.0243L20.7071 12.1464M20.7071 12.1464L20.3481 12.4944C20.9958 13.1623 21.3185 13.9665 21.3182 14.9373L21.318 15.3813M20.7071 12.1464L21.318 15.3813M21.318 15.3813L21.7588 15.434M21.318 15.3813L21.7588 15.434M21.7588 15.434C22.2607 15.494 22.6672 15.7113 23.0001 16.0998C23.3349 16.4905 23.5003 16.9392 23.5 17.4685V17.4688M21.7588 15.434L23.5 17.4688M23.5 17.4688C23.5 18.0457 23.3095 18.5176 22.9253 18.9141C22.5419 19.3097 22.0917 19.5003 21.5457 19.5H21.5455M23.5 17.4688L21.5455 19.5M21.5455 19.5H15C14.3069 19.5 13.7276 19.2585 13.2347 18.7618M21.5455 19.5L13.2347 18.7618M13.2347 18.7618C12.7441 18.2675 12.5004 17.6733 12.5 16.9484L13.2347 18.7618Z" fill="#F59E0B" fill-opacity="0.3" stroke="#F59E0B"/>
</svg>
