<svg width="24" height="24" viewBox="0 0 24 24" fill="none" xmlns="http://www.w3.org/2000/svg">
<path fill-rule="evenodd" clip-rule="evenodd" d="M5 4C3.34315 4 2 5.34315 2 7V17C2 18.6569 3.34315 20 5 20H13V18H5C4.44772 18 4 17.5523 4 17V7C4 6.44772 4.44772 6 5 6H7.78388C8.01539 6 8.23973 6.08033 8.41862 6.22727L10.8119 8.19318C11.3486 8.63402 12.0216 8.875 12.7161 8.875H19C19.5523 8.875 20 9.32272 20 9.875V10H22V9.875C22 8.21815 20.6569 6.875 19 6.875H12.7161C12.4846 6.875 12.2603 6.79467 12.0814 6.64773L9.6881 4.68182C9.15142 4.24098 8.47841 4 7.78388 4H5Z" fill="#64748B"/>
<path d="M22.8622 13.1827L19.069 11.1063C18.9423 11.0366 18.7999 11 18.6552 11C18.5105 11 18.3682 11.0366 18.2414 11.1063L14.4483 13.1827C14.3126 13.2569 14.1993 13.3664 14.1204 13.4995C14.0416 13.6326 14 13.7844 14 13.9391V18.0607C14 18.2155 14.0416 18.3673 14.1204 18.5004C14.1993 18.6335 14.3126 18.7429 14.4483 18.8172L18.2414 20.8935C18.3682 20.9634 18.5105 21 18.6552 21C18.7999 21 18.9423 20.9634 19.069 20.8935L22.8622 18.8172C22.9979 18.7429 23.1111 18.6335 23.19 18.5004C23.2689 18.3673 23.3105 18.2155 23.3104 18.0607V13.9391C23.3105 13.7844 23.2689 13.6326 23.19 13.4995C23.1111 13.3664 22.9979 13.2569 22.8622 13.1827ZM18.6552 12.0589L21.7587 13.7585L20.835 14.2641L17.7315 12.565L18.6552 12.0589ZM18.6552 15.4568L15.5517 13.7585L16.6535 13.1551L19.757 14.8538L18.6552 15.4568ZM15.0345 14.6547L18.138 16.353V19.6577L15.0345 17.9586V14.6547ZM19.1725 19.6577V16.353L20.207 15.787V17.0344C20.207 17.1716 20.2615 17.3032 20.3585 17.4002C20.4555 17.4972 20.587 17.5517 20.7242 17.5517C20.8614 17.5517 20.993 17.4972 21.09 17.4002C21.187 17.3032 21.2415 17.1716 21.2415 17.0344V15.2206L22.276 14.6547V17.9586L19.1725 19.6577Z" fill="#10B981"/>
</svg>
