<svg width="24" height="24" viewBox="0 0 24 24" fill="none" xmlns="http://www.w3.org/2000/svg">
<path fill-rule="evenodd" clip-rule="evenodd" d="M5 4C3.34315 4 2 5.34315 2 7V7.875V17C2 18.6569 3.34315 20 5 20H13V18H5C4.44772 18 4 17.5523 4 17V8.875H7.5H11H19C19.5523 8.875 20 9.32272 20 9.875V10H22V9.875C22 8.21815 20.6569 6.875 19 6.875H11.4556L9.85256 5.03146C9.28278 4.37623 8.45706 4 7.58874 4H5ZM8.34334 6.34382L8.80524 6.875H7.5H4.00774C4.06925 6.38171 4.49005 6 5 6H7.58874C7.87818 6 8.15342 6.12541 8.34334 6.34382Z" fill="#64748B"/>
<path fill-rule="evenodd" clip-rule="evenodd" d="M18.4999 11.4202C16.0137 11.4202 13.9999 13.5215 13.9999 16.1158C13.9999 18.1937 15.2881 19.9487 17.0768 20.5708C17.3018 20.6119 17.3862 20.4711 17.3862 20.3478C17.3862 20.2363 17.3806 19.8665 17.3806 19.4732C16.2499 19.6904 15.9574 19.1856 15.8674 18.9215C15.8168 18.7865 15.5974 18.3698 15.4062 18.2582C15.2487 18.1702 15.0237 17.953 15.4006 17.9472C15.7549 17.9413 16.0081 18.2876 16.0924 18.4285C16.4974 19.1387 17.1443 18.9391 17.4031 18.8158C17.4424 18.5106 17.5606 18.3052 17.6899 18.1878C16.6887 18.0704 15.6424 17.6654 15.6424 15.8693C15.6424 15.3587 15.8168 14.9361 16.1037 14.6074C16.0587 14.49 15.9012 14.0087 16.1487 13.363C16.1487 13.363 16.5256 13.2398 17.3862 13.8443C17.7462 13.7387 18.1287 13.6858 18.5112 13.6858C18.8937 13.6858 19.2762 13.7387 19.6362 13.8443C20.4968 13.2339 20.8737 13.363 20.8737 13.363C21.1212 14.0087 20.9637 14.49 20.9187 14.6074C21.2056 14.9361 21.3799 15.3528 21.3799 15.8693C21.3799 17.6713 20.3281 18.0704 19.3268 18.1878C19.4899 18.3345 19.6306 18.6163 19.6306 19.0565C19.6306 19.6845 19.6249 20.1893 19.6249 20.3478C19.6249 20.4711 19.7093 20.6178 19.9343 20.5708C20.8276 20.2562 21.6039 19.6571 22.1538 18.8579C22.7038 18.0587 22.9997 17.0997 22.9999 16.1158C22.9999 13.5215 20.9862 11.4202 18.4999 11.4202Z" fill="#A1A1AA"/>
</svg>
