<svg width="24" height="24" viewBox="0 0 24 24" fill="none" xmlns="http://www.w3.org/2000/svg">
<path fill-rule="evenodd" clip-rule="evenodd" d="M5 4C3.34315 4 2 5.34315 2 7V7.875V17C2 18.6569 3.34315 20 5 20H13V18H5C4.44772 18 4 17.5523 4 17V8.875H7.5H11H19C19.5523 8.875 20 9.32272 20 9.875V10H22V9.875C22 8.21815 20.6569 6.875 19 6.875H11.4556L9.85256 5.03146C9.28278 4.37623 8.45706 4 7.58874 4H5ZM8.34334 6.34382L8.80524 6.875H7.5H4.00774C4.06925 6.38171 4.49005 6 5 6H7.58874C7.87818 6 8.15342 6.12541 8.34334 6.34382Z" fill="#64748B"/>
<path d="M17.2499 13.7021L17.8298 12H14V13.7021H17.2499ZM24 13.7021V12H19.6576L19.1064 13.7021H24ZM16.2557 16.6809L16.766 14.9787H14V16.6809H16.2557ZM24 16.6809V14.9787H18.5594L18.0426 16.6809H24ZM15.1968 19.8723L15.7021 18.1702H14V19.8723H15.1968ZM24 19.8723V18.1702H17.5355L16.9787 19.8723H24Z" fill="#F87171"/>
</svg>
