<svg width="24" height="24" viewBox="0 0 24 24" fill="none" xmlns="http://www.w3.org/2000/svg">
<path fill-rule="evenodd" clip-rule="evenodd" d="M5 4C3.34315 4 2 5.34315 2 7V17C2 18.6569 3.34315 20 5 20H13V18H5C4.44772 18 4 17.5523 4 17V7C4 6.44772 4.44772 6 5 6H7.78388C8.01539 6 8.23973 6.08033 8.41862 6.22727L10.8119 8.19318C11.3486 8.63402 12.0216 8.875 12.7161 8.875H19C19.5523 8.875 20 9.32272 20 9.875V10H22V9.875C22 8.21815 20.6569 6.875 19 6.875H12.7161C12.4846 6.875 12.2603 6.79467 12.0814 6.64773L9.6881 4.68182C9.15142 4.24098 8.47841 4 7.78388 4H5Z" fill="#64748B"/>
<path d="M14 19.4898V15.7312C14 15.4508 14.103 15.2143 14.3091 15.0215C14.5152 14.8288 14.7582 14.7411 15.0382 14.7587C15.7304 14.8638 16.3898 15.0676 17.0164 15.37C17.643 15.6725 18.2146 16.0645 18.7312 16.546C19.2481 16.0641 19.8199 15.672 20.4465 15.3695C21.0731 15.0671 21.7323 14.8634 22.4241 14.7587C22.7045 14.7411 22.9477 14.8288 23.1538 15.0215C23.3599 15.2143 23.4627 15.4508 23.4624 15.7312V19.4898C23.4624 19.7702 23.3704 20.009 23.1864 20.2064C23.0024 20.4037 22.7702 20.5109 22.4898 20.5281C21.9291 20.6157 21.3859 20.7603 20.8602 20.9618C20.3345 21.1633 19.8439 21.4305 19.3883 21.7634C19.2919 21.8423 19.1891 21.9013 19.0797 21.9406C18.9704 21.9798 18.8542 21.9996 18.7312 22C18.6082 22.0003 18.492 21.9807 18.3827 21.9411C18.2733 21.9015 18.1704 21.8423 18.0741 21.7634C17.6185 21.4305 17.1278 21.1633 16.6021 20.9618C16.0765 20.7603 15.5333 20.6157 14.9725 20.5281C14.6922 20.5105 14.46 20.4033 14.276 20.2064C14.092 20.0094 14 19.7706 14 19.4898ZM18.7312 15.2055C18.1529 15.2055 17.6579 14.9996 17.2461 14.5878C16.8343 14.176 16.6284 13.681 16.6284 13.1027C16.6284 12.5245 16.8343 12.0295 17.2461 11.6177C17.6579 11.2059 18.1529 11 18.7312 11C19.3094 11 19.8045 11.2059 20.2162 11.6177C20.628 12.0295 20.8339 12.5245 20.8339 13.1027C20.8339 13.681 20.628 14.176 20.2162 14.5878C19.8045 14.9996 19.3094 15.2055 18.7312 15.2055Z" fill="#34D399"/>
</svg>
