<svg width="24" height="24" viewBox="0 0 24 24" fill="none" xmlns="http://www.w3.org/2000/svg">
<path fill-rule="evenodd" clip-rule="evenodd" d="M5 4C3.34315 4 2 5.34315 2 7V7.875V17C2 18.6569 3.34315 20 5 20H13V18H5C4.44772 18 4 17.5523 4 17V8.875H7.5H11H19C19.5523 8.875 20 9.32272 20 9.875V10H22V9.875C22 8.21815 20.6569 6.875 19 6.875H11.4556L9.85256 5.03146C9.28278 4.37623 8.45706 4 7.58874 4H5ZM8.34334 6.34382L8.80524 6.875H7.5H4.00774C4.06925 6.38171 4.49005 6 5 6H7.58874C7.87818 6 8.15342 6.12541 8.34334 6.34382Z" fill="#64748B"/>
<path fill-rule="evenodd" clip-rule="evenodd" d="M21.4469 11.003C21.5252 11.0116 21.6005 11.0377 21.6673 11.0795C21.7341 11.1212 21.7906 11.1775 21.8326 11.244C23.5097 13.8995 23.2566 16.7186 21.8557 18.4942C21.1561 19.3804 20.1734 19.9988 19.0272 20.1817C18.0273 20.3405 16.9346 20.1628 15.8335 19.5863C15.7323 19.9055 15.6605 20.2152 15.6191 20.5072C15.599 20.6443 15.5254 20.7678 15.4143 20.8508C15.3033 20.9338 15.1639 20.9694 15.0267 20.9498C14.8895 20.9303 14.7656 20.8572 14.6822 20.7465C14.5987 20.6359 14.5625 20.4967 14.5815 20.3594C14.6543 19.873 14.7776 19.3957 14.9494 18.9349C14.1439 18.0492 13.9237 16.9287 14.0218 15.9277C14.1297 14.8235 14.6334 13.7643 15.289 13.2177C16.1652 12.4877 17.0855 12.1879 17.8842 12.0412C18.2333 11.9808 18.5847 11.9351 18.9376 11.9044C19.1887 11.8792 19.4449 11.8624 19.6902 11.8017C20.0532 11.7139 20.4002 11.5696 20.7184 11.374C20.9501 11.2294 21.1477 10.9694 21.4469 11.003ZM16.2271 18.6084C16.8099 17.4203 17.7626 16.2815 19.0031 15.661C19.0652 15.6305 19.1207 15.5881 19.1664 15.5361C19.212 15.4842 19.2469 15.4237 19.269 15.3581C19.2912 15.2926 19.3001 15.2234 19.2954 15.1543C19.2906 15.0853 19.2722 15.018 19.2413 14.9561C19.2104 14.8942 19.1675 14.8391 19.1152 14.7939C19.0629 14.7486 19.0021 14.7142 18.9364 14.6926C18.8707 14.6709 18.8014 14.6625 18.7324 14.6678C18.6635 14.6731 18.5962 14.692 18.5346 14.7234C17.1678 15.4068 16.1207 16.5886 15.4399 17.849C15.5752 18.0695 15.7431 18.2683 15.9378 18.4386C16.0349 18.499 16.131 18.5556 16.2271 18.6084Z" fill="#16A34A"/>
</svg>
