<svg width="24" height="24" viewBox="0 0 24 24" fill="none" xmlns="http://www.w3.org/2000/svg">
<path fill-rule="evenodd" clip-rule="evenodd" d="M5 4C3.34315 4 2 5.34315 2 7V7.875V17C2 18.6569 3.34315 20 5 20H13V18H5C4.44772 18 4 17.5523 4 17V8.875H7.5H11H19C19.5523 8.875 20 9.32272 20 9.875V10H22V9.875C22 8.21815 20.6569 6.875 19 6.875H11.4556L9.85256 5.03146C9.28278 4.37623 8.45706 4 7.58874 4H5ZM8.34334 6.34382L8.80524 6.875H7.5H4.00774C4.06925 6.38171 4.49005 6 5 6H7.58874C7.87818 6 8.15342 6.12541 8.34334 6.34382Z" fill="#64748B"/>
<path d="M16 19.52C16 20.86 17.09 21.95 18.43 21.95C19.77 21.95 20.86 20.86 20.86 19.52V16" stroke="#8B5CF6" stroke-width="1.5" stroke-linecap="round"/>
<path d="M16 19.52V16.89L17.72 18.61" stroke="#8B5CF6" stroke-width="1.5" stroke-linecap="round"/>
<path d="M20.86 15.55C21.7713 15.55 22.51 14.8113 22.51 13.9C22.51 12.9887 21.7713 12.25 20.86 12.25C19.9487 12.25 19.21 12.9887 19.21 13.9C19.21 14.8113 19.9487 15.55 20.86 15.55Z" stroke="#8B5CF6" stroke-width="1.5" stroke-linecap="round"/>
</svg>
