<svg width="24" height="24" viewBox="0 0 24 24" fill="none" xmlns="http://www.w3.org/2000/svg">
<path fill-rule="evenodd" clip-rule="evenodd" d="M5 4C3.34315 4 2 5.34315 2 7V7.875V17C2 18.6569 3.34315 20 5 20H13V18H5C4.44772 18 4 17.5523 4 17V8.875H7.5H11H19C19.5523 8.875 20 9.32272 20 9.875V10H22V9.875C22 8.21815 20.6569 6.875 19 6.875H11.4556L9.85256 5.03146C9.28278 4.37623 8.45706 4 7.58874 4H5ZM8.34334 6.34382L8.80524 6.875H7.5H4.00774C4.06925 6.38171 4.49005 6 5 6H7.58874C7.87818 6 8.15342 6.12541 8.34334 6.34382Z" fill="#64748B"/>
<path d="M19.1161 11.3375C18.5768 10.7399 18.1124 10.1331 18.0175 10.0069C18.0076 9.99769 17.9926 9.99769 17.9826 10.0069C17.8877 10.1331 17.4233 10.7399 16.884 11.3375C12.2549 16.8508 17.6131 20.5715 17.6131 20.5715L17.658 20.5995C17.698 21.1737 17.7978 22 17.7978 22H17.9976H18.1973C18.1973 22 18.2972 21.1784 18.3371 20.5995L18.3821 20.5668C18.3871 20.5668 23.7452 16.8508 19.1161 11.3375ZM17.9976 20.4874C17.9976 20.4874 17.7578 20.296 17.6929 20.198V20.1887L17.9826 14.1851C17.9826 14.1665 18.0126 14.1665 18.0126 14.1851L18.3022 20.1887V20.198C18.2372 20.296 17.9976 20.4874 17.9976 20.4874Z" fill="#22C55E"/>
</svg>
