<svg width="24" height="24" viewBox="0 0 24 24" fill="none" xmlns="http://www.w3.org/2000/svg">
<path fill-rule="evenodd" clip-rule="evenodd" d="M5 4C3.34315 4 2 5.34315 2 7V17C2 18.6569 3.34315 20 5 20H13V18H5C4.44772 18 4 17.5523 4 17V7C4 6.44772 4.44772 6 5 6H7.78388C8.01539 6 8.23973 6.08033 8.41862 6.22727L10.8119 8.19318C11.3486 8.63402 12.0216 8.875 12.7161 8.875H19C19.5523 8.875 20 9.32272 20 9.875V10H22V9.875C22 8.21815 20.6569 6.875 19 6.875H12.7161C12.4846 6.875 12.2603 6.79467 12.0814 6.64773L9.6881 4.68182C9.15142 4.24098 8.47841 4 7.78388 4H5Z" fill="#64748B"/>
<path d="M19 16.9091L18.0909 16L19 15.0909L19.9091 16L19 16.9091ZM18.0341 14.2386L16.8977 13.1023L19 11L21.1023 13.1023L19.9659 14.2386L19 13.2727L18.0341 14.2386ZM16.1023 18.1023L14 16L16.1023 13.8977L17.2386 15.0341L16.2727 16L17.2386 16.9659L16.1023 18.1023ZM21.8977 18.1023L20.7614 16.9659L21.7273 16L20.7614 15.0341L21.8977 13.8977L24 16L21.8977 18.1023ZM19 21L16.8977 18.8977L18.0341 17.7614L19 18.7273L19.9659 17.7614L21.1023 18.8977L19 21Z" fill="#F87171"/>
</svg>
