<svg width="24" height="24" viewBox="0 0 24 24" fill="none" xmlns="http://www.w3.org/2000/svg">
<path fill-rule="evenodd" clip-rule="evenodd" d="M5 4C3.34315 4 2 5.34315 2 7V7.875V17C2 18.6569 3.34315 20 5 20H13V18H5C4.44772 18 4 17.5523 4 17V8.875H7.5H11H19C19.5523 8.875 20 9.32272 20 9.875V10H22V9.875C22 8.21815 20.6569 6.875 19 6.875H11.4556L9.85256 5.03146C9.28278 4.37623 8.45706 4 7.58874 4H5ZM8.34334 6.34382L8.80524 6.875H7.5H4.00774C4.06925 6.38171 4.49005 6 5 6H7.58874C7.87818 6 8.15342 6.12541 8.34334 6.34382Z" fill="#64748B"/>
<path d="M22 19C21.445 19 21 19.445 21 20C21 20.2652 21.1054 20.5196 21.2929 20.7071C21.4804 20.8946 21.7348 21 22 21C22.2652 21 22.5196 20.8946 22.7071 20.7071C22.8946 20.5196 23 20.2652 23 20C23 19.7348 22.8946 19.4804 22.7071 19.2929C22.5196 19.1054 22.2652 19 22 19ZM14 11V12H15L16.8 15.795L16.12 17.02C16.045 17.16 16 17.325 16 17.5C16 17.7652 16.1054 18.0196 16.2929 18.2071C16.4804 18.3946 16.7348 18.5 17 18.5H23V17.5H17.21C17.1768 17.5 17.1451 17.4868 17.1216 17.4634C17.0982 17.4399 17.085 17.4082 17.085 17.375C17.085 17.35 17.09 17.33 17.1 17.315L17.55 16.5H21.275C21.65 16.5 21.98 16.29 22.15 15.985L23.94 12.75C23.975 12.67 24 12.585 24 12.5C24 12.3674 23.9473 12.2402 23.8536 12.1464C23.7598 12.0527 23.6326 12 23.5 12H16.105L15.635 11M17 19C16.445 19 16 19.445 16 20C16 20.2652 16.1054 20.5196 16.2929 20.7071C16.4804 20.8946 16.7348 21 17 21C17.2652 21 17.5196 20.8946 17.7071 20.7071C17.8946 20.5196 18 20.2652 18 20C18 19.7348 17.8946 19.4804 17.7071 19.2929C17.5196 19.1054 17.2652 19 17 19Z" fill="#14B8A6"/>
</svg>
