<svg width="24" height="24" viewBox="0 0 24 24" fill="none" xmlns="http://www.w3.org/2000/svg">
<path fill-rule="evenodd" clip-rule="evenodd" d="M5 4C3.34315 4 2 5.34315 2 7V17C2 18.6569 3.34315 20 5 20H13V18H5C4.44772 18 4 17.5523 4 17V7C4 6.44772 4.44772 6 5 6H7.78388C8.01539 6 8.23973 6.08033 8.41862 6.22727L10.8119 8.19318C11.3486 8.63402 12.0216 8.875 12.7161 8.875H19C19.5523 8.875 20 9.32272 20 9.875V10H22V9.875C22 8.21815 20.6569 6.875 19 6.875H12.7161C12.4846 6.875 12.2603 6.79467 12.0814 6.64773L9.6881 4.68182C9.15142 4.24098 8.47841 4 7.78388 4H5Z" fill="#64748B"/>
<path fill-rule="evenodd" clip-rule="evenodd" d="M20.7169 11C21.4255 11 22 11.5745 22 12.2831L22 14.0819C22 14.7905 21.4255 15.365 20.7169 15.365L15.2831 15.365C14.5745 15.365 14 14.7905 14 14.0819L14 12.2831C14 11.5745 14.5745 11 15.2831 11L20.7169 11ZM20.7169 16.5355C21.4255 16.5355 22 17.11 22 17.8187L22 18.7169C22 19.4255 21.4255 20 20.7169 20L19.743 20C19.0343 20 18.4598 19.4255 18.4598 18.7169L18.4598 17.8187C18.4598 17.11 19.0343 16.5355 19.743 16.5355L20.7169 16.5355ZM17.5402 17.5356C17.5402 16.9833 17.0924 16.5356 16.5402 16.5356L15 16.5356C14.4477 16.5356 14 16.9833 14 17.5356L14 19C14 19.5523 14.4477 20 15 20L16.5402 20C17.0925 20 17.5402 19.5523 17.5402 19L17.5402 17.5356Z" fill="#C084FC"/>
</svg>
