<svg width="24" height="24" viewBox="0 0 24 24" fill="none" xmlns="http://www.w3.org/2000/svg">
<path fill-rule="evenodd" clip-rule="evenodd" d="M5 4C3.34315 4 2 5.34315 2 7V17C2 18.6569 3.34315 20 5 20H13V18H5C4.44772 18 4 17.5523 4 17V7C4 6.44772 4.44772 6 5 6H7.78388C8.01539 6 8.23973 6.08033 8.41862 6.22727L10.8119 8.19318C11.3486 8.63402 12.0216 8.875 12.7161 8.875H19C19.5523 8.875 20 9.32272 20 9.875V10H22V9.875C22 8.21815 20.6569 6.875 19 6.875H12.7161C12.4846 6.875 12.2603 6.79467 12.0814 6.64773L9.6881 4.68182C9.15142 4.24098 8.47841 4 7.78388 4H5Z" fill="#64748B"/>
<path d="M18.8282 14.5608V14.246C18.8282 13.4119 18.8282 12.995 19.0724 12.707C19.3166 12.419 19.7278 12.35 20.5501 12.2124L21.765 12.0105C21.835 11.9991 21.8701 11.9929 21.8886 12.0136C21.9072 12.0342 21.8989 12.0682 21.8819 12.1372L21.4208 13.9822C21.4131 14.0131 21.4089 14.0286 21.3981 14.0389C21.3873 14.0492 21.3724 14.0523 21.3409 14.0585L18.8282 14.5608ZM18.8282 14.5608V17.6521V14.5608ZM18.8282 17.6521V19.0705C18.828 19.5324 18.6593 19.9783 18.3536 20.3245C18.048 20.6708 17.6265 20.8936 17.1682 20.9511L16.8812 20.9871C16.6544 21.0154 16.4242 20.997 16.2048 20.9329C15.9854 20.8689 15.7815 20.7606 15.6055 20.6147C15.4296 20.4688 15.2854 20.2884 15.1818 20.0847C15.0782 19.881 15.0174 19.6582 15.0032 19.4301C14.989 19.202 15.0217 18.9734 15.0992 18.7583C15.1767 18.5433 15.2974 18.3465 15.4539 18.1799C15.6104 18.0133 15.7994 17.8806 16.0091 17.7898C16.2189 17.699 16.445 17.6522 16.6736 17.6521H18.8282Z" fill="#F87171"/>
<path d="M18.8282 14.5608V14.246C18.8282 13.4119 18.8282 12.995 19.0724 12.707C19.3166 12.419 19.7278 12.35 20.5501 12.2124L21.765 12.0105C21.835 11.9991 21.8701 11.9929 21.8886 12.0136C21.9072 12.0342 21.8989 12.0682 21.8819 12.1372L21.4208 13.9822C21.4131 14.0131 21.4089 14.0286 21.3981 14.0389C21.3873 14.0492 21.3724 14.0523 21.3409 14.0585L18.8282 14.5608ZM18.8282 14.5608V17.6521M18.8282 17.6521V19.0705C18.828 19.5324 18.6593 19.9783 18.3536 20.3245C18.048 20.6708 17.6265 20.8936 17.1682 20.9511L16.8812 20.9871C16.6544 21.0154 16.4242 20.997 16.2048 20.9329C15.9854 20.8689 15.7815 20.7606 15.6055 20.6147C15.4296 20.4688 15.2854 20.2884 15.1818 20.0847C15.0782 19.881 15.0174 19.6582 15.0032 19.4301C14.989 19.202 15.0217 18.9734 15.0992 18.7583C15.1767 18.5433 15.2974 18.3465 15.4539 18.1799C15.6104 18.0133 15.7994 17.8806 16.0091 17.7898C16.2189 17.699 16.445 17.6522 16.6736 17.6521H18.8282Z" stroke="#F87171" stroke-width="1.2"/>
</svg>
