<svg width="24" height="24" viewBox="0 0 24 24" fill="none" xmlns="http://www.w3.org/2000/svg">
<path fill-rule="evenodd" clip-rule="evenodd" d="M5 4C3.34315 4 2 5.34315 2 7V7.875V17C2 18.6569 3.34315 20 5 20H13V18H5C4.44772 18 4 17.5523 4 17V8.875H7.5H11H19C19.5523 8.875 20 9.32272 20 9.875V10H22V9.875C22 8.21815 20.6569 6.875 19 6.875H11.4556L9.85256 5.03146C9.28278 4.37623 8.45706 4 7.58874 4H5ZM8.34334 6.34382L8.80524 6.875H7.5H4.00774C4.06925 6.38171 4.49005 6 5 6H7.58874C7.87818 6 8.15342 6.12541 8.34334 6.34382Z" fill="#64748B"/>
<path d="M17.5714 11C17.1925 11 16.8292 11.1505 16.5613 11.4184C16.2934 11.6863 16.1429 12.0497 16.1429 12.4286V13.8571H17.2143C17.6879 13.8571 18.1421 14.0453 18.477 14.3802C18.8119 14.7151 19 15.1693 19 15.6429V18.1429H20.4286V18.8571H19V19.5714H21.5C21.5947 19.5714 21.6856 19.5338 21.7525 19.4668C21.8195 19.3998 21.8571 19.309 21.8571 19.2143C21.8571 19.1196 21.8195 19.0287 21.7525 18.9617C21.6856 18.8948 21.5947 18.8571 21.5 18.8571H21.1429V18.1429H22.5714C22.9503 18.1429 23.3137 17.9923 23.5816 17.7244C23.8495 17.4565 24 17.0932 24 16.7143V12.4286C24 12.0497 23.8495 11.6863 23.5816 11.4184C23.3137 11.1505 22.9503 11 22.5714 11H17.5714ZM15.0714 14.5714C14.7873 14.5714 14.5147 14.6843 14.3138 14.8852C14.1129 15.0862 14 15.3587 14 15.6429V19.9286C14 20.2127 14.1129 20.4853 14.3138 20.6862C14.5147 20.8871 14.7873 21 15.0714 21H17.2143C17.4984 21 17.771 20.8871 17.9719 20.6862C18.1728 20.4853 18.2857 20.2127 18.2857 19.9286V15.6429C18.2857 15.3587 18.1728 15.0862 17.9719 14.8852C17.771 14.6843 17.4984 14.5714 17.2143 14.5714H15.0714ZM15.4286 19.2143C15.4286 19.1196 15.4662 19.0287 15.5332 18.9617C15.6002 18.8948 15.691 18.8571 15.7857 18.8571H16.5C16.5947 18.8571 16.6856 18.8948 16.7525 18.9617C16.8195 19.0287 16.8571 19.1196 16.8571 19.2143C16.8571 19.309 16.8195 19.3998 16.7525 19.4668C16.6856 19.5338 16.5947 19.5714 16.5 19.5714H15.7857C15.691 19.5714 15.6002 19.5338 15.5332 19.4668C15.4662 19.3998 15.4286 19.309 15.4286 19.2143Z" fill="#0EA5E9"/>
</svg>
