<svg width="24" height="24" viewBox="0 0 24 24" fill="none" xmlns="http://www.w3.org/2000/svg">
<path fill-rule="evenodd" clip-rule="evenodd" d="M5 4C3.34315 4 2 5.34315 2 7V7.875V17C2 18.6569 3.34315 20 5 20H13V18H5C4.44772 18 4 17.5523 4 17V8.875H7.5H11H19C19.5523 8.875 20 9.32272 20 9.875V10H22V9.875C22 8.21815 20.6569 6.875 19 6.875H11.4556L9.85256 5.03146C9.28278 4.37623 8.45706 4 7.58874 4H5ZM8.34334 6.34382L8.80524 6.875H7.5H4.00774C4.06925 6.38171 4.49005 6 5 6H7.58874C7.87818 6 8.15342 6.12541 8.34334 6.34382Z" fill="#64748B"/>
<path d="M23.8535 11.8535C23.9446 11.7592 23.995 11.6329 23.9939 11.5018C23.9927 11.3707 23.9402 11.2453 23.8475 11.1526C23.7547 11.0599 23.6293 11.0073 23.4982 11.0062C23.3671 11.005 23.2408 11.0554 23.1465 11.1465L22.248 12.045C21.8405 11.7917 21.3593 11.6836 20.8827 11.7385C20.406 11.7933 19.9619 12.0078 19.6225 12.347L19.0885 12.8815C18.9246 13.0456 18.8325 13.268 18.8325 13.5C18.8325 13.7319 18.9246 13.9544 19.0885 14.1185L20.881 15.9115C20.9623 15.9928 21.0588 16.0572 21.1649 16.1012C21.2711 16.1452 21.3849 16.1678 21.4998 16.1678C21.6147 16.1678 21.7285 16.1452 21.8347 16.1012C21.9408 16.0572 22.0373 15.9928 22.1185 15.9115L22.6525 15.3775C22.9917 15.0382 23.2062 14.5943 23.2611 14.1177C23.316 13.6411 23.2082 13.16 22.955 12.7525L23.8535 11.8535ZM18.3535 15.8535C18.4446 15.7592 18.495 15.6329 18.4939 15.5018C18.4927 15.3707 18.4402 15.2453 18.3474 15.1526C18.2547 15.0599 18.1293 15.0073 17.9982 15.0062C17.8671 15.005 17.7408 15.0554 17.6465 15.1465L16.9115 15.8815L16.765 15.735C16.6947 15.6648 16.5994 15.6253 16.5 15.6253C16.4007 15.6253 16.3054 15.6648 16.235 15.735L15.3475 16.6225C15.0084 16.9617 14.7939 17.4057 14.739 17.8823C14.684 18.3589 14.7919 18.84 15.045 19.2475L14.1465 20.1465C14.0988 20.1926 14.0607 20.2478 14.0345 20.3088C14.0083 20.3698 13.9945 20.4354 13.9939 20.5018C13.9933 20.5682 14.006 20.634 14.0311 20.6955C14.0563 20.7569 14.0934 20.8127 14.1403 20.8597C14.1873 20.9066 14.2431 20.9438 14.3046 20.9689C14.366 20.994 14.4319 21.0067 14.4982 21.0061C14.5646 21.0055 14.6302 20.9917 14.6912 20.9655C14.7522 20.9393 14.8074 20.9012 14.8535 20.8535L15.7525 19.955C16.16 20.2081 16.6412 20.316 17.1177 20.2611C17.5943 20.2062 18.0383 19.9917 18.3775 19.6525L19.265 18.765C19.3353 18.6947 19.3747 18.5994 19.3747 18.5C19.3747 18.4006 19.3353 18.3053 19.265 18.235L19.1185 18.0885L19.8535 17.3535C19.9446 17.2592 19.995 17.1329 19.9939 17.0018C19.9927 16.8707 19.9402 16.7453 19.8474 16.6526C19.7547 16.5599 19.6293 16.5073 19.4982 16.5062C19.3671 16.505 19.2408 16.5554 19.1465 16.6465L18.4115 17.3815L17.6185 16.5885L18.3535 15.8535Z" fill="#38BDF8"/>
</svg>
