<svg width="24" height="24" viewBox="0 0 24 24" fill="none" xmlns="http://www.w3.org/2000/svg">
<path fill-rule="evenodd" clip-rule="evenodd" d="M5 4C3.34315 4 2 5.34315 2 7V7.875V17C2 18.6569 3.34315 20 5 20H11V18H5C4.44772 18 4 17.5523 4 17V8.875H7.5H11H19C19.5523 8.875 20 9.32272 20 9.875V10H22V9.875C22 8.21815 20.6569 6.875 19 6.875H11.4556L9.85256 5.03146C9.28278 4.37623 8.45706 4 7.58874 4H5ZM8.34334 6.34382L8.80524 6.875H7.5H4.00774C4.06925 6.38171 4.49005 6 5 6H7.58874C7.87818 6 8.15342 6.12541 8.34334 6.34382Z" fill="#64748B"/>
<path d="M20.1818 19.6364C19.9364 19.6364 19.6978 19.6136 19.4662 19.5682C19.2345 19.5227 19.0095 19.4591 18.7909 19.3773C19.3182 18.9318 19.7273 18.4 20.0182 17.7818C20.3091 17.1636 20.4545 16.5091 20.4545 15.8182C20.4545 15.1273 20.3091 14.4727 20.0182 13.8545C19.7273 13.2364 19.3182 12.7045 18.7909 12.2591C19.0091 12.1773 19.2342 12.1136 19.4662 12.0682C19.6982 12.0227 19.9367 12 20.1818 12C21.2455 12 22.1478 12.3705 22.8889 13.1116C23.63 13.8527 24.0004 14.7549 24 15.8182C23.9996 16.8815 23.6293 17.7838 22.8889 18.5253C22.1485 19.2667 21.2462 19.6371 20.1818 19.6364ZM15.8182 19.6364C14.7545 19.6364 13.8524 19.266 13.1116 18.5253C12.3709 17.7845 12.0004 16.8822 12 15.8182C11.9996 14.7542 12.3702 13.852 13.1116 13.1116C13.8531 12.3713 14.7553 12.0007 15.8182 12C16.0636 12 16.3024 12.0227 16.5344 12.0682C16.7664 12.1136 16.9913 12.1773 17.2091 12.2591C17.0545 12.3864 16.9091 12.5251 16.7727 12.6753C16.6364 12.8255 16.5091 12.9822 16.3909 13.1455C16.3 13.1273 16.2067 13.1136 16.1111 13.1045C16.0155 13.0955 15.9178 13.0909 15.8182 13.0909C15.0636 13.0909 14.4205 13.3569 13.8889 13.8889C13.3573 14.4209 13.0913 15.064 13.0909 15.8182C13.0905 16.5724 13.3565 17.2156 13.8889 17.748C14.4213 18.2804 15.0644 18.5462 15.8182 18.5455C15.9182 18.5455 16.016 18.5409 16.1116 18.5318C16.2073 18.5227 16.3004 18.5091 16.3909 18.4909C16.5091 18.6545 16.6364 18.8115 16.7727 18.9616C16.9091 19.1118 17.0545 19.2504 17.2091 19.3773C16.9909 19.4591 16.7658 19.5227 16.5338 19.5682C16.3018 19.6136 16.0633 19.6364 15.8182 19.6364ZM18 18.9545C17.4818 18.6 17.0795 18.1455 16.7929 17.5909C16.5064 17.0364 16.3633 16.4455 16.3636 15.8182C16.364 15.1909 16.5073 14.6 16.7935 14.0455C17.0796 13.4909 17.4818 13.0364 18 12.6818C18.5182 13.0364 18.9205 13.4909 19.2071 14.0455C19.4936 14.6 19.6367 15.1909 19.6364 15.8182C19.636 16.4455 19.4927 17.0364 19.2065 17.5909C18.9204 18.1455 18.5182 18.6 18 18.9545Z" fill="#E879F9"/>
</svg>
