<svg width="24" height="24" viewBox="0 0 24 24" fill="none" xmlns="http://www.w3.org/2000/svg">
<path fill-rule="evenodd" clip-rule="evenodd" d="M5 4C3.34315 4 2 5.34315 2 7V7.875V17C2 18.6569 3.34315 20 5 20H11V18H5C4.44772 18 4 17.5523 4 17V8.875H7.5H11H19C19.5523 8.875 20 9.32272 20 9.875V10H22V9.875C22 8.21815 20.6569 6.875 19 6.875H11.4556L9.85256 5.03146C9.28278 4.37623 8.45706 4 7.58874 4H5ZM8.34334 6.34382L8.80524 6.875H7.5H4.00774C4.06925 6.38171 4.49005 6 5 6H7.58874C7.87818 6 8.15342 6.12541 8.34334 6.34382Z" fill="#64748B"/>
<path d="M18.6271 11.0027C18.4743 10.9954 18.3212 11.0029 18.1699 11.0253C17.769 11.0947 17.3885 11.2521 17.0558 11.4862C16.723 11.7203 16.4463 12.0253 16.2456 12.3792C16.0351 12.7 15.9449 13.126 15.7444 13.4418C14.8772 12.6899 13.5589 13.4919 13.7393 15.1962H13.6391C13.2011 15.2654 12.8083 15.5051 12.5464 15.8629C12.2574 16.2481 12.0695 16.6996 12 17.1761V17.918C12.0852 17.9782 12.1805 17.9782 12.2757 17.9782H20.0952C20.2005 17.9731 20.2556 17.8929 20.2957 17.7375C20.4962 16.9155 20.1604 16.4142 19.6341 16.4142C18.2657 16.3992 16.8972 16.3741 15.5288 16.3491C15.4486 16.3491 15.2982 16.4243 15.3033 16.2288C15.3083 16.0333 15.4536 16.1085 15.5388 16.1085C16.9089 16.0617 18.2623 16.0383 19.599 16.0383C20.1855 16.0333 20.8922 15.507 21.1028 14.5045C21.117 14.4113 21.1475 14.3214 21.193 14.2388C21.2526 14.1286 21.2858 14.0061 21.2902 13.8808C21.2945 13.7556 21.2698 13.6311 21.218 13.517C21.1579 13.3716 21.1128 13.2162 21.0627 13.0709C20.8972 12.5765 20.6172 12.1282 20.2456 11.7626C19.8276 11.3056 19.2457 11.0324 18.6271 11.0027ZM21.6622 13.9952C21.4917 13.9992 21.4707 14.11 21.388 14.5195C21.3729 14.6047 21.3378 14.6899 21.3378 14.7802C21.1925 15.517 21.409 15.9631 21.9353 16.0183C22.2211 16.0483 22.5063 16.0884 22.797 16.0884C22.8521 16.0985 22.9774 16.0584 22.9474 16.1987C22.9173 16.3391 22.8271 16.3391 22.7469 16.3391C22.5313 16.3641 22.3108 16.3942 22.0902 16.3942C21.3484 16.3942 20.792 16.8403 20.5063 17.898C20.5714 17.9481 20.6416 17.9481 20.7068 17.9481H23.8045C23.8736 17.9562 23.9433 17.9383 24 17.898L23.9749 16.1636C23.9148 16.0233 23.8546 15.8829 23.8045 15.7375C23.6809 15.2991 23.4353 14.9048 23.0963 14.6004C22.7573 14.296 22.3389 14.0942 21.8897 14.0183C21.7915 14.0032 21.7193 13.9932 21.6622 13.9947" fill="#EA580C"/>
</svg>
