<svg width="24" height="24" viewBox="0 0 24 24" fill="none" xmlns="http://www.w3.org/2000/svg">
<path fill-rule="evenodd" clip-rule="evenodd" d="M5 4C3.34315 4 2 5.34315 2 7V7.875V17C2 18.6569 3.34315 20 5 20H13V18H5C4.44772 18 4 17.5523 4 17V8.875H7.5H11H19C19.5523 8.875 20 9.32272 20 9.875V10H22V9.875C22 8.21815 20.6569 6.875 19 6.875H11.4556L9.85256 5.03146C9.28278 4.37623 8.45706 4 7.58874 4H5ZM8.34334 6.34382L8.80524 6.875H7.5H4.00774C4.06925 6.38171 4.49005 6 5 6H7.58874C7.87818 6 8.15342 6.12541 8.34334 6.34382Z" fill="#64748B"/>
<path d="M14.5939 18.2639L18.0939 19.8195C18.3524 19.9344 18.6476 19.9344 18.9061 19.8195L22.4061 18.2639C22.7673 18.1034 23 17.7453 23 17.3501V13.6499C23 13.2547 22.7673 12.8966 22.4061 12.7361L18.9061 11.1805C18.6476 11.0656 18.3524 11.0656 18.0939 11.1805L14.5939 12.7361C14.2327 12.8966 14 13.2547 14 13.6499V17.3501C14 17.7453 14.2327 18.1034 14.5939 18.2639Z" fill="#3B82F6"/>
</svg>
