<svg width="24" height="24" viewBox="0 0 24 24" fill="none" xmlns="http://www.w3.org/2000/svg">
<path fill-rule="evenodd" clip-rule="evenodd" d="M5 4C3.34315 4 2 5.34315 2 7V7.875V17C2 18.6569 3.34315 20 5 20H13V18H5C4.44772 18 4 17.5523 4 17V8.875H7.5H11H19C19.5523 8.875 20 9.32272 20 9.875V10H22V9.875C22 8.21815 20.6569 6.875 19 6.875H11.4556L9.85256 5.03146C9.28278 4.37623 8.45706 4 7.58874 4H5ZM8.34334 6.34382L8.80524 6.875H7.5H4.00774C4.06925 6.38171 4.49005 6 5 6H7.58874C7.87818 6 8.15342 6.12541 8.34334 6.34382Z" fill="#64748B"/>
<path d="M14 12C14 11.4477 14.4477 11 15 11H22C22.5523 11 23 11.4477 23 12V19C23 19.5523 22.5523 20 22 20H15C14.4477 20 14 19.5523 14 19V12ZM14.8182 14.0911V19.1818H22.1818V14.0911H14.8182ZM22.1818 13.2729V11.8182H14.8182V13.2729H22.1818Z" fill="#F87171" stroke="#F87171" stroke-width="0.5"/>
</svg>
