<svg width="24" height="24" viewBox="0 0 24 24" fill="none" xmlns="http://www.w3.org/2000/svg">
<path fill-rule="evenodd" clip-rule="evenodd" d="M5 4C3.34315 4 2 5.34315 2 7V17C2 18.6569 3.34315 20 5 20H13V18H5C4.44772 18 4 17.5523 4 17V7C4 6.44772 4.44772 6 5 6H7.78388C8.01539 6 8.23973 6.08033 8.41862 6.22727L10.8119 8.19318C11.3486 8.63402 12.0216 8.875 12.7161 8.875H19C19.5523 8.875 20 9.32272 20 9.875V10H22V9.875C22 8.21815 20.6569 6.875 19 6.875H12.7161C12.4846 6.875 12.2603 6.79467 12.0814 6.64773L9.6881 4.68182C9.15142 4.24098 8.47841 4 7.78388 4H5Z" fill="#64748B"/>
<path d="M23 18.25C23 18.44 22.895 18.605 22.735 18.69L18.785 20.91C18.705 20.97 18.605 21 18.5 21C18.395 21 18.295 20.97 18.215 20.91L14.265 18.69C14.1848 18.6479 14.1177 18.5846 14.071 18.5071C14.0242 18.4295 13.9997 18.3406 14 18.25V13.75C14 13.56 14.105 13.395 14.265 13.31L18.215 11.09C18.295 11.03 18.395 11 18.5 11C18.605 11 18.705 11.03 18.785 11.09L22.735 13.31C22.895 13.395 23 13.56 23 13.75V18.25ZM18.5 12.075L15.52 13.75L18.5 15.425L21.48 13.75L18.5 12.075Z" fill="#60A5FA"/>
</svg>
