<svg width="24" height="24" viewBox="0 0 24 24" fill="none" xmlns="http://www.w3.org/2000/svg">
<path fill-rule="evenodd" clip-rule="evenodd" d="M5 4C3.34315 4 2 5.34315 2 7V17C2 18.6569 3.34315 20 5 20H13V18H5C4.44772 18 4 17.5523 4 17V7C4 6.44772 4.44772 6 5 6H7.78388C8.01539 6 8.23973 6.08033 8.41862 6.22727L10.8119 8.19318C11.3486 8.63402 12.0216 8.875 12.7161 8.875H19C19.5523 8.875 20 9.32272 20 9.875V10H22V9.875C22 8.21815 20.6569 6.875 19 6.875H12.7161C12.4846 6.875 12.2603 6.79467 12.0814 6.64773L9.6881 4.68182C9.15142 4.24098 8.47841 4 7.78388 4H5Z" fill="#64748B"/>
<path d="M19 14.0455C18.6383 14.0455 18.2915 14.1891 18.0358 14.4449C17.78 14.7006 17.6364 15.0474 17.6364 15.4091C17.6364 15.7707 17.78 16.1176 18.0358 16.3733C18.2915 16.6291 18.6383 16.7727 19 16.7727C19.3617 16.7727 19.7085 16.6291 19.9642 16.3733C20.22 16.1176 20.3636 15.7707 20.3636 15.4091C20.3636 15.0474 20.22 14.7006 19.9642 14.4449C19.7085 14.1891 19.3617 14.0455 19 14.0455ZM19 17.6818C18.3972 17.6818 17.8192 17.4424 17.3929 17.0162C16.9667 16.5899 16.7273 16.0119 16.7273 15.4091C16.7273 14.8063 16.9667 14.2282 17.3929 13.802C17.8192 13.3758 18.3972 13.1364 19 13.1364C19.6028 13.1364 20.1808 13.3758 20.6071 13.802C21.0333 14.2282 21.2727 14.8063 21.2727 15.4091C21.2727 16.0119 21.0333 16.5899 20.6071 17.0162C20.1808 17.4424 19.6028 17.6818 19 17.6818ZM19 12C16.7273 12 14.7864 13.4136 14 15.4091C14.7864 17.4045 16.7273 18.8182 19 18.8182C21.2727 18.8182 23.2136 17.4045 24 15.4091C23.2136 13.4136 21.2727 12 19 12Z" fill="#60A5FA"/>
</svg>
