<svg width="24" height="24" viewBox="0 0 24 24" fill="none" xmlns="http://www.w3.org/2000/svg">
<path fill-rule="evenodd" clip-rule="evenodd" d="M5 4C3.34315 4 2 5.34315 2 7V17C2 18.6569 3.34315 20 5 20H13V18H5C4.44772 18 4 17.5523 4 17V7C4 6.44772 4.44772 6 5 6H7.78388C8.01539 6 8.23973 6.08033 8.41862 6.22727L10.8119 8.19318C11.3486 8.63402 12.0216 8.875 12.7161 8.875H19C19.5523 8.875 20 9.32272 20 9.875V10H22V9.875C22 8.21815 20.6569 6.875 19 6.875H12.7161C12.4846 6.875 12.2603 6.79467 12.0814 6.64773L9.6881 4.68182C9.15142 4.24098 8.47841 4 7.78388 4H5Z" fill="#64748B"/>
<path d="M16.827 20.3693C16.3314 19.915 16.1868 18.9607 16.393 18.2688C16.7506 18.7049 17.2466 18.843 17.7603 18.9211C18.5524 19.041 19.3311 18.9965 20.0676 18.6329C20.1517 18.5911 20.2298 18.5356 20.3217 18.48C20.391 18.6808 20.4091 18.8837 20.3849 19.0905C20.3261 19.5938 20.0769 19.9826 19.6793 20.2774C19.5203 20.3956 19.3526 20.5007 19.1887 20.6118C18.6849 20.9539 18.5485 21.3543 18.7377 21.9373L18.7564 22C18.5141 21.8944 18.3091 21.7185 18.1679 21.4951C18.0203 21.2652 17.9417 20.9978 17.9413 20.7246C17.9396 20.5882 17.9396 20.4512 17.9215 20.3176C17.8769 19.9903 17.7235 19.8446 17.4358 19.8358C17.2978 19.8279 17.1616 19.8707 17.0528 19.956C16.9439 20.0414 16.8699 20.1634 16.8446 20.2994C16.8398 20.3207 16.8338 20.3438 16.8264 20.3687M14 18.1539C14 18.1539 15.4663 17.4372 16.937 17.4372L18.0458 13.9942C18.087 13.827 18.2086 13.7137 18.345 13.7137C18.4825 13.7137 18.6035 13.827 18.6447 13.9942L19.7535 17.4372C21.4954 17.4372 22.6905 18.1539 22.6905 18.1539L20.1946 11.3311C20.1231 11.1298 20.0021 11 19.8399 11H16.8506C16.6878 11 16.5723 11.1298 16.4959 11.3311C16.4904 11.3443 14 18.1539 14 18.1539Z" fill="#A855F7"/>
</svg>
