<svg width="24" height="24" viewBox="0 0 24 24" fill="none" xmlns="http://www.w3.org/2000/svg">
<path fill-rule="evenodd" clip-rule="evenodd" d="M5 4C3.34315 4 2 5.34315 2 7V17C2 18.6569 3.34315 20 5 20H12V18H5C4.44772 18 4 17.5523 4 17V7C4 6.44772 4.44772 6 5 6H7.78388C8.01539 6 8.23973 6.08033 8.41862 6.22727L10.8119 8.19318C11.3486 8.63402 12.0216 8.875 12.7161 8.875H19C19.5523 8.875 20 9.32272 20 9.875V10H22V9.875C22 8.21815 20.6569 6.875 19 6.875H12.7161C12.4846 6.875 12.2603 6.79467 12.0814 6.64773L9.6881 4.68182C9.15142 4.24098 8.47841 4 7.78388 4H5Z" fill="#64748B"/>
<path d="M23.6699 11.9499C23.2767 11.224 22.5821 11.0112 22.092 11.0003C21.4889 10.9893 20.9935 11.3332 21.085 11.5624C21.1066 11.6115 21.2196 11.868 21.2896 11.9717C21.392 12.1245 21.5697 12.0045 21.6343 11.9717C22.0764 11.7391 22.6625 11.8157 22.9536 12.4138C23.4114 13.3252 22.0005 15.1972 20.2341 13.8983C18.4678 12.6048 16.7499 13.0305 15.9691 13.2925C15.1936 13.5545 14.8328 13.8164 15.1397 14.4222C15.5598 15.2463 15.4198 14.9953 15.8237 15.6775C16.4645 16.7636 17.8754 15.1754 17.8754 15.1754C16.8253 16.7745 15.926 16.387 15.5813 15.8303C15.269 15.3282 15.0266 14.7442 15.0266 14.7442C12.3718 15.7157 13.088 19.9673 13.088 19.9673L14.4073 19.9727C14.7412 18.3954 15.9475 18.4609 16.1521 19.9782L17.1592 19.9836C18.0477 16.9055 20.3041 19.9946 20.3041 19.9946L21.6181 20C21.2519 17.8988 22.3558 17.2384 23.0505 16.0104C23.756 14.777 24.4184 13.2706 23.6699 11.9499ZM19.5825 16.065C18.9359 15.8478 19.1679 15.1808 19.1679 15.1808L19.5987 15.3227C19.561 15.3773 19.5448 15.4428 19.5556 15.5137C19.5718 15.6775 19.7226 15.7975 19.8895 15.7812C20.0349 15.7648 20.148 15.6502 20.1641 15.5137L20.5034 15.6284C20.4549 15.8303 20.0723 16.2295 19.5825 16.065Z" fill="#2DD4BF"/>
</svg>
