<svg width="24" height="24" viewBox="0 0 24 24" fill="none" xmlns="http://www.w3.org/2000/svg">
<path fill-rule="evenodd" clip-rule="evenodd" d="M5 4C3.34315 4 2 5.34315 2 7V17C2 18.6569 3.34315 20 5 20H11V18H5C4.44772 18 4 17.5523 4 17V7C4 6.44772 4.44772 6 5 6H7.78388C8.01539 6 8.23973 6.08033 8.41862 6.22727L10.8119 8.19318C11.3486 8.63402 12.0216 8.875 12.7161 8.875H19C19.5523 8.875 20 9.32272 20 9.875V10H22V9.875C22 8.21815 20.6569 6.875 19 6.875H12.7161C12.4846 6.875 12.2603 6.79467 12.0814 6.64773L9.6881 4.68182C9.15142 4.24098 8.47841 4 7.78388 4H5Z" fill="#64748B"/>
<path d="M22.375 12H13.625C13.2812 12 13 12.2755 13 12.6122V19.9592C13 20.2959 13.2812 20.5714 13.625 20.5714H22.375C22.7188 20.5714 23 20.2959 23 19.9592V12.6122C23 12.2755 22.7188 12 22.375 12ZM20.8125 18.7347H17.6875C17.5125 18.7347 17.375 18.6 17.375 18.4286C17.375 18.2571 17.5125 18.1224 17.6875 18.1224H20.8125C20.9875 18.1224 21.125 18.2571 21.125 18.4286C21.125 18.6 20.9875 18.7347 20.8125 18.7347ZM17.1188 16.7755L15.4625 18.398C15.4263 18.4331 15.3834 18.461 15.3362 18.4799C15.289 18.4988 15.2385 18.5084 15.1875 18.5082C15.1365 18.5084 15.086 18.4988 15.0388 18.4799C14.9916 18.461 14.9487 18.4331 14.9125 18.398C14.8407 18.3259 14.8006 18.2292 14.8006 18.1286C14.8006 18.0279 14.8407 17.9312 14.9125 17.8592L16.5125 16.2857L14.9125 14.7184C14.8407 14.6463 14.8006 14.5496 14.8006 14.449C14.8006 14.3483 14.8407 14.2516 14.9125 14.1796C15.0625 14.0327 15.3125 14.0327 15.4625 14.1796L17.1188 15.7959C17.3938 16.0653 17.3938 16.5061 17.1188 16.7755Z" fill="#14B8A6"/>
</svg>
