<svg width="24" height="24" viewBox="0 0 24 24" fill="none" xmlns="http://www.w3.org/2000/svg">
<path fill-rule="evenodd" clip-rule="evenodd" d="M5 4C3.34315 4 2 5.34315 2 7V7.875V17C2 18.6569 3.34315 20 5 20H13V18H5C4.44772 18 4 17.5523 4 17V8.875H7.5H11H19C19.5523 8.875 20 9.32272 20 9.875V10H22V9.875C22 8.21815 20.6569 6.875 19 6.875H11.4556L9.85256 5.03146C9.28278 4.37623 8.45706 4 7.58874 4H5ZM8.34334 6.34382L8.80524 6.875H7.5H4.00774C4.06925 6.38171 4.49005 6 5 6H7.58874C7.87818 6 8.15342 6.12541 8.34334 6.34382Z" fill="#64748B"/>
<path d="M19.2621 20.0692C19.0259 20.3446 18.5463 20.1945 18.5405 19.8427L18.4577 14.6989H22.1921C22.8687 14.6989 23.2458 15.4233 22.8252 15.9123L19.2621 20.0692Z" fill="url(#paint0_linear_38522_582)"/>
<path d="M19.2621 20.0692C19.0259 20.3446 18.5463 20.1945 18.5405 19.8427L18.4577 14.6989H22.1921C22.8687 14.6989 23.2458 15.4233 22.8252 15.9123L19.2621 20.0692Z" fill="url(#paint1_linear_38522_582)"/>
<path d="M17.7433 11.794C17.9795 11.5186 18.4577 11.6691 18.4635 12.0209L18.4998 17.1644H14.8118C14.1352 17.1644 13.7582 16.4402 14.1788 15.9509L17.7433 11.794Z" fill="#3ECF8E"/>
<defs>
<linearGradient id="paint0_linear_38522_582" x1="18.4579" y1="15.8396" x2="21.6965" y2="17.3064" gradientUnits="userSpaceOnUse">
<stop stop-color="#249361"/>
<stop offset="1" stop-color="#3ECF8E"/>
</linearGradient>
<linearGradient id="paint1_linear_38522_582" x1="16.9863" y1="13.9738" x2="18.3263" y2="16.698" gradientUnits="userSpaceOnUse">
<stop stop-opacity="0.2"/>
<stop offset="1" stop-opacity="0"/>
</linearGradient>
</defs>
</svg>
