<svg width="24" height="24" viewBox="0 0 24 24" fill="none" xmlns="http://www.w3.org/2000/svg">
<g clip-path="url(#clip0_38522_598)">
<path fill-rule="evenodd" clip-rule="evenodd" d="M5 4C3.34315 4 2 5.34315 2 7V7.875V17C2 18.6569 3.34315 20 5 20H13V18H5C4.44772 18 4 17.5523 4 17V8.875H7.5H11H19C19.5523 8.875 20 9.32272 20 9.875V10H22V9.875C22 8.21815 20.6569 6.875 19 6.875H11.4556L9.85256 5.03146C9.28278 4.37623 8.45706 4 7.58874 4H5ZM8.34334 6.34382L8.80524 6.875H7.5H4.00774C4.06925 6.38171 4.49005 6 5 6H7.58874C7.87818 6 8.15342 6.12541 8.34334 6.34382Z" fill="#64748B"/>
<path d="M14.1 14.419V18.464C14.1 19.245 14.733 19.879 15.514 19.879H22.586C23.367 19.879 24 19.245 24 18.464V14.419L19.791 17.009C19.337 17.289 18.763 17.289 18.309 17.009L14.1 14.419Z" fill="#F87171"/>
<path d="M24 13.589V13.514C24 12.733 23.367 12.1 22.586 12.1H15.514C14.733 12.1 14.1 12.733 14.1 13.514V13.589L18.679 16.407C18.907 16.547 19.193 16.547 19.421 16.407L24 13.589Z" fill="#F87171"/>
</g>
<defs>
<clipPath id="clip0_38522_598">
<rect width="24" height="24" fill="white"/>
</clipPath>
</defs>
</svg>
