<svg width="24" height="24" viewBox="0 0 24 24" fill="none" xmlns="http://www.w3.org/2000/svg">
<path fill-rule="evenodd" clip-rule="evenodd" d="M5 4C3.34315 4 2 5.34315 2 7V7.875V17C2 18.6569 3.34315 20 5 20H13V18H5C4.44772 18 4 17.5523 4 17V8.875H7.5H11H19C19.5523 8.875 20 9.32272 20 9.875V10H22V9.875C22 8.21815 20.6569 6.875 19 6.875H11.4556L9.85256 5.03146C9.28278 4.37623 8.45706 4 7.58874 4H5ZM8.34334 6.34382L8.80524 6.875H7.5H4.00774C4.06925 6.38171 4.49005 6 5 6H7.58874C7.87818 6 8.15342 6.12541 8.34334 6.34382Z" fill="#64748B"/>
<path d="M18.5 11C20.9853 11 23 13.0147 23 15.5C23 17.9853 20.9853 20 18.5 20C16.0147 20 14 17.9853 14 15.5C14 13.0147 16.0147 11 18.5 11ZM19.8223 17.5246H17.1777C17.4711 18.6108 17.981 19.3251 18.5 19.3251C19.019 19.3251 19.5289 18.6108 19.8223 17.5246ZM16.4791 17.5248L15.2541 17.5248C15.6853 18.2145 16.3303 18.757 17.0962 19.0593C16.8612 18.6905 16.6673 18.2287 16.5247 17.7026L16.4791 17.5248ZM21.7459 17.5248L20.521 17.5248C20.3753 18.125 20.1649 18.6495 19.9033 19.0593C20.6218 18.7759 21.2336 18.2814 21.6626 17.6523L21.7459 17.5248ZM16.2924 14.5999H14.7817L14.7796 14.6076C14.7111 14.8939 14.6749 15.1927 14.6749 15.5C14.6749 15.9752 14.7615 16.4302 14.9199 16.8499L16.3476 16.8498C16.2836 16.4227 16.2497 15.9691 16.2497 15.5C16.2497 15.1923 16.2643 14.8912 16.2924 14.5999ZM20.0284 14.5999H16.9716C16.941 14.888 16.9245 15.1893 16.9245 15.5C16.9245 15.9767 16.9633 16.4313 17.0324 16.8499H19.9676C20.0367 16.4313 20.0754 15.9767 20.0754 15.5C20.0754 15.1893 20.059 14.888 20.0284 14.5999ZM22.2185 14.5995L20.7076 14.5999C20.7358 14.8912 20.7503 15.1923 20.7503 15.5C20.7503 15.9691 20.7164 16.4227 20.6524 16.8498L22.0801 16.8499C22.2384 16.4302 22.3251 15.9752 22.3251 15.5C22.3251 15.1898 22.2882 14.8883 22.2185 14.5995ZM17.0967 11.9407L17.0864 11.9446C16.1652 12.3112 15.4201 13.0253 15.0131 13.9251L16.3845 13.9253C16.5255 13.1367 16.7716 12.4501 17.0967 11.9407ZM18.5 11.6749L18.448 11.6773C17.8786 11.7294 17.3286 12.6301 17.0731 13.9251H19.9269C19.6721 12.6337 19.1245 11.7344 18.5568 11.6777L18.5 11.6749ZM19.9038 11.9407L19.9519 12.019C20.2529 12.5196 20.4816 13.1764 20.6155 13.9253L21.9869 13.9251C21.5979 13.0651 20.9 12.3747 20.0348 11.9953L19.9038 11.9407Z" fill="#60A5FA"/>
</svg>
