<svg width="24" height="24" viewBox="0 0 24 24" fill="none" xmlns="http://www.w3.org/2000/svg">
<path fill-rule="evenodd" clip-rule="evenodd" d="M5 4C3.34315 4 2 5.34315 2 7V7.875V17C2 18.6569 3.34315 20 5 20H13V18H5C4.44772 18 4 17.5523 4 17V8.875H7.5H11H19C19.5523 8.875 20 9.32272 20 9.875V10H22V9.875C22 8.21815 20.6569 6.875 19 6.875H11.4556L9.85256 5.03146C9.28278 4.37623 8.45706 4 7.58874 4H5ZM8.34334 6.34382L8.80524 6.875H7.5H4.00774C4.06925 6.38171 4.49005 6 5 6H7.58874C7.87818 6 8.15342 6.12541 8.34334 6.34382Z" fill="#64748B"/>
<path d="M24 17H23.5C23.2239 17 23 17.2239 23 17.5V17.5C23 17.7761 22.7761 18 22.5 18H20.5C20.2239 18 20 17.7761 20 17.5V16.5V15.5V13C20 12.7348 19.8946 12.4804 19.7071 12.2929C19.5196 12.1054 19.2652 12 19 12H15.5C15.2239 12 15 11.7761 15 11.5V11.5C15 11.2239 14.7761 11 14.5 11V11C14.2239 11 14 11.2239 14 11.5V14.5C14 14.7761 14.2239 15 14.5 15V15C14.7761 15 15 14.7761 15 14.5V14.5C15 14.2239 15.2239 14 15.5 14H17.5C17.7761 14 18 14.2239 18 14.5V15.5V16.5V19C18 19.2652 18.1054 19.5196 18.2929 19.7071C18.4804 19.8946 18.7348 20 19 20H22.5C22.7761 20 23 20.2239 23 20.5V20.5C23 20.7761 23.2239 21 23.5 21H24" fill="#16A34A"/>
</svg>
