<svg width="24" height="24" viewBox="0 0 24 24" fill="none" xmlns="http://www.w3.org/2000/svg">
<path fill-rule="evenodd" clip-rule="evenodd" d="M5 4C3.34315 4 2 5.34315 2 7V17C2 18.6569 3.34315 20 5 20H13V18H5C4.44772 18 4 17.5523 4 17V7C4 6.44772 4.44772 6 5 6H7.78388C8.01539 6 8.23973 6.08033 8.41862 6.22727L10.8119 8.19318C11.3486 8.63402 12.0216 8.875 12.7161 8.875H19C19.5523 8.875 20 9.32272 20 9.875V10H22V9.875C22 8.21815 20.6569 6.875 19 6.875H12.7161C12.4846 6.875 12.2603 6.79467 12.0814 6.64773L9.6881 4.68182C9.15142 4.24098 8.47841 4 7.78388 4H5Z" fill="#64748B"/>
<path d="M18.2299 16.75C18.4385 16.9583 18.7013 17.0563 19.0183 17.044C19.3354 17.0317 19.5648 16.917 19.7066 16.7L22.5099 12.5L18.305 15.3C18.0881 15.45 17.9693 15.677 17.9486 15.981C17.9279 16.285 18.0217 16.5413 18.2299 16.75ZM15.5518 20C15.3683 20 15.1994 19.9603 15.0452 19.881C14.891 19.8017 14.7679 18.683 14.6758 18.525C14.4589 18.1333 14.292 17.7272 14.1752 17.3065C14.0584 16.8858 14 16.4503 14 16C14 15.3083 14.1315 14.6583 14.3945 14.05C14.6574 13.4417 15.014 12.9125 15.4642 12.4625C15.9144 12.0125 16.4442 11.6563 17.0536 11.394C17.6629 11.1317 18.3137 11.0003 19.0058 11C19.69 11 20.3324 11.1292 20.9331 11.3875C21.5338 11.6458 22.0594 11.998 22.5099 12.444C22.9604 12.89 23.3192 13.4108 23.5862 14.0065C23.8531 14.6022 23.9908 15.2417 23.9991 15.925C24.0075 16.3833 23.9554 16.8313 23.843 17.269C23.7305 17.7067 23.5573 18.1253 23.3233 18.525C23.2316 18.6833 23.1086 19.8022 22.9544 19.8815C22.8002 19.9608 22.631 20.0003 22.4468 20H18.9993H15.5518Z" fill="#60A5FA"/>
</svg>
