<svg width="24" height="24" viewBox="0 0 24 24" fill="none" xmlns="http://www.w3.org/2000/svg">
<path fill-rule="evenodd" clip-rule="evenodd" d="M5 4C3.34315 4 2 5.34315 2 7V7.875V17C2 18.6569 3.34315 20 5 20H13V18H5C4.44772 18 4 17.5523 4 17V8.875H7.5H11H19C19.5523 8.875 20 9.32272 20 9.875V10H22V9.875C22 8.21815 20.6569 6.875 19 6.875H11.4556L9.85256 5.03146C9.28278 4.37623 8.45706 4 7.58874 4H5ZM8.34334 6.34382L8.80524 6.875H7.5H4.00774C4.06925 6.38171 4.49005 6 5 6H7.58874C7.87818 6 8.15342 6.12541 8.34334 6.34382Z" fill="#64748B"/>
<mask id="mask0_38540_392" style="mask-type:alpha" maskUnits="userSpaceOnUse" x="14" y="11" width="9" height="11">
<path d="M14.3178 20.4413L14.0004 11.9841C13.9899 11.7048 14.2041 11.468 14.483 11.4506L21.6765 11.001C21.9604 10.9833 22.205 11.1991 22.2228 11.483C22.2234 11.4937 22.2238 11.5044 22.2238 11.5152V20.7308C22.2238 21.0153 21.9931 21.2459 21.7086 21.2459C21.7009 21.2459 21.6932 21.2458 21.6855 21.2454L14.8094 20.9366C14.5416 20.9246 14.3278 20.7092 14.3178 20.4413Z" fill="#F472B6"/>
</mask>
<g mask="url(#mask0_38540_392)">
<path fill-rule="evenodd" clip-rule="evenodd" d="M14.0004 11.9841L14.3178 20.4413C14.3278 20.7092 14.5416 20.9246 14.8094 20.9366L21.6855 21.2454C21.6932 21.2458 21.7009 21.2459 21.7086 21.2459C21.9931 21.2459 22.2238 21.0153 22.2238 20.7308V11.5152C22.2238 11.5044 22.2234 11.4937 22.2228 11.483C22.205 11.1991 21.9604 10.9833 21.6765 11.001L21.1109 11.0364L21.1522 12.2187C21.1537 12.2611 21.1205 12.2967 21.0781 12.2982C21.0599 12.2988 21.0421 12.293 21.0278 12.2818L20.6469 11.9817L20.1958 12.3238C20.162 12.3495 20.1138 12.3429 20.0882 12.309C20.0774 12.2948 20.0719 12.2773 20.0726 12.2594L20.1209 11.0982L14.483 11.4506C14.2041 11.468 13.9899 11.7048 14.0004 11.9841ZM18.8092 14.8619C18.8092 15.0623 20.1592 14.9662 20.3404 14.8254C20.3404 13.4606 19.6081 12.7434 18.2671 12.7434C16.9261 12.7434 16.1748 13.4718 16.1748 14.5643C16.1748 15.6588 17.0243 16.1358 17.7461 16.541C18.2792 16.8403 18.7426 17.1005 18.7426 17.5414C18.7426 17.8327 18.6 18.0057 18.2861 18.0057C17.8772 18.0057 17.7155 17.7969 17.7345 17.0867C17.7345 16.9327 16.1748 16.8847 16.1272 17.0867C16.0061 18.8076 17.0783 19.304 18.3052 19.304C19.494 19.304 20.426 18.6703 20.426 17.5232C20.426 16.3264 19.5285 15.8507 18.7869 15.4577C18.2649 15.1811 17.8201 14.9454 17.8201 14.5279C17.8201 14.1182 18.1245 14.0636 18.3052 14.0636C18.4954 14.0636 18.8378 14.0971 18.8092 14.8619Z" fill="#F472B6"/>
</g>
</svg>
