<svg width="24" height="24" viewBox="0 0 24 24" fill="none" xmlns="http://www.w3.org/2000/svg">
<path fill-rule="evenodd" clip-rule="evenodd" d="M5 4C3.34315 4 2 5.34315 2 7V7.875V17C2 18.6569 3.34315 20 5 20H13V18H5C4.44772 18 4 17.5523 4 17V8.875H7.5H11H19C19.5523 8.875 20 9.32272 20 9.875V10H22V9.875C22 8.21815 20.6569 6.875 19 6.875H11.4556L9.85256 5.03146C9.28278 4.37623 8.45706 4 7.58874 4H5ZM8.34334 6.34382L8.80524 6.875H7.5H4.00774C4.06925 6.38171 4.49005 6 5 6H7.58874C7.87818 6 8.15342 6.12541 8.34334 6.34382Z" fill="#64748B"/>
<path d="M19.3135 11.4474C19.3395 11.376 19.3403 11.298 19.3159 11.2261C19.2915 11.1542 19.2432 11.0928 19.1792 11.0521C19.1151 11.0113 19.0391 10.9937 18.9636 11.002C18.8881 11.0104 18.8178 11.0443 18.7642 11.098L16.0976 13.7647C16.0676 13.7947 16.0436 13.8302 16.0269 13.8693L14.027 18.5359C14.0052 18.5866 13.9964 18.6419 14.0013 18.6969C14.0062 18.7519 14.0247 18.8048 14.0551 18.8508C14.0855 18.8969 14.1269 18.9347 14.1755 18.9608C14.2241 18.9869 14.2784 19.0006 14.3336 19.0006H16.3336C16.4021 19.0005 16.4689 18.9794 16.525 18.94C16.581 18.9007 16.6236 18.845 16.6469 18.7806L19.3135 11.4474ZM20.6368 12.5293C20.6099 12.4698 20.566 12.4194 20.5106 12.3846C20.4553 12.3498 20.3909 12.332 20.3255 12.3335C20.2602 12.335 20.1967 12.3557 20.143 12.393C20.0893 12.4303 20.0477 12.4826 20.0235 12.5433L18.6902 15.8766C18.669 15.9298 18.6618 15.9875 18.6694 16.0443C18.677 16.101 18.6991 16.1549 18.7335 16.2006L20.4562 18.4972L16.8949 19.6839C16.8195 19.7087 16.7554 19.7595 16.7142 19.8274C16.6729 19.8952 16.6572 19.9755 16.6699 20.0539C16.6826 20.1322 16.7229 20.2035 16.7834 20.2548C16.844 20.3061 16.9209 20.3342 17.0002 20.3339H23.6668C23.7225 20.3338 23.7774 20.3198 23.8264 20.2931C23.8753 20.2664 23.9168 20.2278 23.947 20.1809C23.9772 20.134 23.9951 20.0803 23.9991 20.0247C24.0032 19.969 23.9932 19.9133 23.9701 19.8625L20.6368 12.5293Z" fill="#3B82F6"/>
</svg>
