<svg width="24" height="24" viewBox="0 0 24 24" fill="none" xmlns="http://www.w3.org/2000/svg">
<path fill-rule="evenodd" clip-rule="evenodd" d="M5 4C3.34315 4 2 5.34315 2 7V7.875V17C2 18.6569 3.34315 20 5 20H13V18H5C4.44772 18 4 17.5523 4 17V8.875H7.5H11H19C19.5523 8.875 20 9.32272 20 9.875V10H22V9.875C22 8.21815 20.6569 6.875 19 6.875H11.4556L9.85256 5.03146C9.28278 4.37623 8.45706 4 7.58874 4H5ZM8.34334 6.34382L8.80524 6.875H7.5H4.00774C4.06925 6.38171 4.49005 6 5 6H7.58874C7.87818 6 8.15342 6.12541 8.34334 6.34382Z" fill="#64748B"/>
<path d="M21.5 11.875H16.5C15.6025 11.875 14.875 12.6025 14.875 13.5V18.5C14.875 19.3975 15.6025 20.125 16.5 20.125H21.5C22.3975 20.125 23.125 19.3975 23.125 18.5V13.5C23.125 12.6025 22.3975 11.875 21.5 11.875Z" stroke="#C084FC" stroke-width="1.25" stroke-linejoin="round"/>
<path d="M20.5 15.5C21.0523 15.5 21.5 15.0523 21.5 14.5C21.5 13.9477 21.0523 13.5 20.5 13.5C19.9477 13.5 19.5 13.9477 19.5 14.5C19.5 15.0523 19.9477 15.5 20.5 15.5Z" fill="#C084FC"/>
<path d="M15.5 19.5L18.2929 16.7071C18.6834 16.3166 19.3166 16.3166 19.7071 16.7071L22.5 19.5" stroke="#C084FC" stroke-width="1.25" stroke-linejoin="round"/>
</svg>
