<svg width="24" height="24" viewBox="0 0 24 24" fill="none" xmlns="http://www.w3.org/2000/svg">
<path fill-rule="evenodd" clip-rule="evenodd" d="M5 4C3.34315 4 2 5.34315 2 7V7.875V17C2 18.6569 3.34315 20 5 20H13V18H5C4.44772 18 4 17.5523 4 17V8.875H7.5H11H19C19.5523 8.875 20 9.32272 20 9.875V10H22V9.875C22 8.21815 20.6569 6.875 19 6.875H11.4556L9.85256 5.03146C9.28278 4.37623 8.45706 4 7.58874 4H5ZM8.34334 6.34382L8.80524 6.875H7.5H4.00774C4.06925 6.38171 4.49005 6 5 6H7.58874C7.87818 6 8.15342 6.12541 8.34334 6.34382Z" fill="#64748B"/>
<rect x="15" y="12" width="2" height="8" rx="1" fill="#A1A1AA"/>
<rect x="18" y="12" width="2" height="8" rx="1" fill="#A1A1AA"/>
<rect x="21.4696" y="12.4696" width="1.06087" height="7.06087" rx="0.530435" fill="#A1A1AA" stroke="#A1A1AA" stroke-width="0.93913"/>
</svg>
