<svg width="24" height="24" viewBox="0 0 24 24" fill="none" xmlns="http://www.w3.org/2000/svg">
<path fill-rule="evenodd" clip-rule="evenodd" d="M5 4C3.34315 4 2 5.34315 2 7V7.875V17C2 18.6569 3.34315 20 5 20H13V18H5C4.44772 18 4 17.5523 4 17V8.875H7.5H11H19C19.5523 8.875 20 9.32272 20 9.875V10H22V9.875C22 8.21815 20.6569 6.875 19 6.875H11.4556L9.85256 5.03146C9.28278 4.37623 8.45706 4 7.58874 4H5ZM8.34334 6.34382L8.80524 6.875H7.5H4.00774C4.06925 6.38171 4.49005 6 5 6H7.58874C7.87818 6 8.15342 6.12541 8.34334 6.34382Z" fill="#64748B"/>
<path d="M14 14.625V12H16.625M20.125 12H22.75V14.625" stroke="#16A34A" stroke-width="1.7" stroke-linecap="round" stroke-linejoin="round"/>
<path d="M14 12L17.8622 15.8622C18.1905 16.1904 18.3749 16.6354 18.375 17.0995M18.375 17.0995V20M18.375 17.0995C18.3751 16.6354 18.5595 16.1904 18.8877 15.8622L22.75 12" stroke="#16A34A" stroke-width="1.7" stroke-linecap="round" stroke-linejoin="round"/>
</svg>
