<svg width="24" height="24" viewBox="0 0 24 24" fill="none" xmlns="http://www.w3.org/2000/svg">
<path fill-rule="evenodd" clip-rule="evenodd" d="M5 4C3.34315 4 2 5.34315 2 7V7.875V17C2 18.6569 3.34315 20 5 20H13V18H5C4.44772 18 4 17.5523 4 17V8.875H7.5H11H19C19.5523 8.875 20 9.32272 20 9.875V10H22V9.875C22 8.21815 20.6569 6.875 19 6.875H11.4556L9.85256 5.03146C9.28278 4.37623 8.45706 4 7.58874 4H5ZM8.34334 6.34382L8.80524 6.875H7.5H4.00774C4.06925 6.38171 4.49005 6 5 6H7.58874C7.87818 6 8.15342 6.12541 8.34334 6.34382Z" fill="#64748B"/>
<path d="M17.093 19.1471C16.9977 19.097 16.9501 19.0468 16.9024 18.9465C16.8548 18.8963 16.8548 18.8963 16.8072 18.9465C16.7595 19.0468 16.7595 19.1471 16.7119 19.2475C16.569 19.7492 16.3308 19.8997 15.8544 19.7993C15.7592 19.7993 15.6639 19.7492 15.5686 19.699C15.3781 19.5986 15.3304 19.4481 15.4257 19.2475C15.4257 19.1973 15.4733 19.1471 15.4733 19.097C15.2828 19.097 15.1875 18.9966 15.1399 18.8461C14.9017 18.1939 14.9493 17.6922 15.4257 17.1905C15.4733 17.0902 15.521 17.04 15.521 16.9397C15.521 16.2875 15.6162 15.6855 16.045 15.1336C16.1879 14.9329 16.3784 14.7323 16.6166 14.5818C16.7119 14.5316 16.7119 14.4814 16.6643 14.3811C16.4737 14.1302 16.3784 13.8794 16.3308 13.5784C16.2832 13.3275 16.4261 13.0767 16.5213 12.8258C16.569 12.7757 16.6166 12.7255 16.6643 12.7255C16.8548 12.6753 16.9977 12.5248 17.1406 12.4245C17.4741 12.0733 17.8552 11.9228 18.3316 11.9228C18.4268 11.9228 18.4745 11.8726 18.4745 11.8225C18.5221 11.6218 18.6174 11.4211 18.7603 11.2204L18.9032 11.0699C18.9985 10.9696 19.1414 10.9696 19.189 11.1201C19.3319 11.3709 19.4272 11.6218 19.5225 11.8225C19.5701 11.9228 19.6178 11.9228 19.6654 11.8726C19.9989 11.7221 19.9989 11.7221 20.0941 12.0733C20.3323 13.1269 20.1894 14.1302 19.6178 15.0834C19.5701 15.1838 19.4749 15.2841 19.4272 15.3845C19.3796 15.4848 19.3796 15.535 19.4749 15.6353C19.9036 16.0367 20.1894 16.5885 20.2847 17.1905C20.3323 17.5417 20.3323 17.9431 20.2847 18.2943C20.237 18.4949 20.2847 18.4949 20.4276 18.4448C20.7611 18.3444 21.0945 18.1939 21.3803 17.9932C21.7138 17.7926 21.9996 17.5919 22.3807 17.5417C22.5236 17.5417 22.6189 17.4916 22.7618 17.5417C22.9047 17.5919 23 17.7424 23 17.8929C23 18.0434 22.9047 18.1437 22.7618 18.1939C22.2854 18.2943 21.8567 18.5451 21.4756 18.8461C20.9992 19.1973 20.4276 19.4481 19.9036 19.5986C19.8559 19.5986 19.7607 19.6488 19.713 19.699C19.5225 19.8495 19.3319 19.8495 19.0938 19.8997C18.5697 19.9498 18.0934 20 17.5694 20C17.4265 20 17.2835 20 17.093 19.9498C16.9501 19.8997 16.8072 19.7993 16.7595 19.6488C16.7119 19.4481 16.7595 19.2976 16.9024 19.1973C16.9977 19.1973 17.0454 19.1471 17.093 19.1471V19.1471Z" fill="#60A5FA"/>
</svg>
