<svg width="24" height="24" viewBox="0 0 24 24" fill="none" xmlns="http://www.w3.org/2000/svg">
<path fill-rule="evenodd" clip-rule="evenodd" d="M5 4C3.34315 4 2 5.34315 2 7V17C2 18.6569 3.34315 20 5 20H13V18H5C4.44772 18 4 17.5523 4 17V7C4 6.44772 4.44772 6 5 6H7.78388C8.01539 6 8.23973 6.08033 8.41862 6.22727L10.8119 8.19318C11.3486 8.63402 12.0216 8.875 12.7161 8.875H19C19.5523 8.875 20 9.32272 20 9.875V10H22V9.875C22 8.21815 20.6569 6.875 19 6.875H12.7161C12.4846 6.875 12.2603 6.79467 12.0814 6.64773L9.6881 4.68182C9.15142 4.24098 8.47841 4 7.78388 4H5Z" fill="#64748B"/>
<path d="M18.693 19.8857C18.0133 19.8857 17.4082 19.793 16.8776 19.6076C16.3471 19.4244 15.8986 19.1548 15.5321 18.799C15.1656 18.4453 14.8865 18.0128 14.6947 17.5014C14.503 16.9901 14.4071 16.4084 14.4071 15.7564C14.4071 15.1129 14.503 14.5291 14.6947 14.005C14.8886 13.4808 15.1709 13.0312 15.5417 12.6562C15.9124 12.2791 16.3652 11.9893 16.9 11.7869C17.4369 11.5845 18.0484 11.4833 18.7345 11.4833C19.3695 11.4833 19.9362 11.576 20.4348 11.7614C20.9355 11.9467 21.3595 12.2109 21.7068 12.554C22.0562 12.8949 22.3215 13.3008 22.5026 13.7717C22.6859 14.2404 22.7764 14.7592 22.7743 15.3281C22.7764 15.7202 22.7423 16.0803 22.672 16.4084C22.6017 16.7365 22.4909 17.0231 22.3396 17.2681C22.1905 17.511 21.9945 17.7038 21.7516 17.8466C21.5087 17.9872 21.2146 18.0671 20.8695 18.0863C20.6223 18.1055 20.422 18.0874 20.2686 18.032C20.1152 17.9766 19.998 17.8945 19.917 17.7859C19.8382 17.6751 19.7871 17.5462 19.7636 17.3991H19.7253C19.6741 17.527 19.574 17.6431 19.4248 17.7475C19.2757 17.8498 19.0935 17.9297 18.8783 17.9872C18.6653 18.0426 18.4383 18.0629 18.1976 18.0479C17.9462 18.033 17.7075 17.9744 17.4817 17.8722C17.2579 17.7699 17.0587 17.6218 16.884 17.4279C16.7114 17.234 16.5751 16.9943 16.4749 16.7088C16.3769 16.4233 16.3268 16.093 16.3247 15.718C16.3268 15.3473 16.379 15.0245 16.4813 14.7496C16.5857 14.4748 16.7231 14.2436 16.8936 14.0561C17.0662 13.8686 17.2579 13.7216 17.4689 13.6151C17.6798 13.5085 17.8918 13.4403 18.1049 13.4105C18.3457 13.3743 18.5736 13.3743 18.7888 13.4105C19.004 13.4467 19.1851 13.5053 19.3322 13.5863C19.4813 13.6673 19.574 13.7546 19.6102 13.8484H19.655V13.4904H20.6553V16.6097C20.6574 16.7567 20.6905 16.8707 20.7544 16.9517C20.8183 17.0327 20.9046 17.0732 21.0133 17.0732C21.1603 17.0732 21.2828 17.0082 21.3808 16.8782C21.481 16.7482 21.5555 16.549 21.6045 16.2805C21.6557 16.0121 21.6812 15.6701 21.6812 15.2546C21.6812 14.854 21.628 14.5025 21.5214 14.1999C21.417 13.8952 21.27 13.6364 21.0804 13.4233C20.8929 13.2081 20.6745 13.0334 20.4252 12.8991C20.1759 12.7649 19.9053 12.6669 19.6134 12.6051C19.3236 12.5433 19.0253 12.5124 18.7185 12.5124C18.188 12.5124 17.7246 12.5934 17.3283 12.7553C16.932 12.9151 16.6017 13.1399 16.3375 13.4297C16.0733 13.7195 15.8751 14.0593 15.743 14.4492C15.6131 14.837 15.547 15.2599 15.5449 15.718C15.547 16.223 15.6173 16.6705 15.7558 17.0604C15.8964 17.4482 16.1031 17.7741 16.3758 18.0384C16.6486 18.3026 16.9852 18.5028 17.3858 18.6392C17.7864 18.7756 18.2466 18.8438 18.7665 18.8438C19.0115 18.8438 19.2512 18.8256 19.4856 18.7894C19.7199 18.7553 19.932 18.7127 20.1216 18.6616C20.3112 18.6126 20.4636 18.5646 20.5786 18.5178L20.895 19.4446C20.7608 19.5213 20.5786 19.5927 20.3485 19.6587C20.1205 19.7269 19.8627 19.7813 19.5751 19.8217C19.2896 19.8643 18.9955 19.8857 18.693 19.8857ZM18.5459 16.9964C18.8059 16.9964 19.0126 16.9464 19.166 16.8462C19.3215 16.7461 19.4323 16.598 19.4984 16.402C19.5665 16.2038 19.5985 15.9599 19.5942 15.6701C19.5921 15.4144 19.5591 15.1982 19.4952 15.0213C19.4334 14.8423 19.3258 14.707 19.1724 14.6154C19.0211 14.5217 18.8101 14.4748 18.5396 14.4748C18.303 14.4748 18.1017 14.5249 17.9355 14.625C17.7714 14.7251 17.6457 14.8658 17.5584 15.0469C17.4731 15.2259 17.4295 15.4368 17.4273 15.6797C17.4295 15.9055 17.4657 16.1197 17.536 16.3221C17.6063 16.5224 17.7224 16.6854 17.8844 16.8111C18.0463 16.9347 18.2668 16.9964 18.5459 16.9964Z" fill="#8B5CF6"/>
</svg>
