<svg width="24" height="24" viewBox="0 0 24 24" fill="none" xmlns="http://www.w3.org/2000/svg">
<path fill-rule="evenodd" clip-rule="evenodd" d="M5 4C3.34315 4 2 5.34315 2 7V7.875V17C2 18.6569 3.34315 20 5 20H13V18H5C4.44772 18 4 17.5523 4 17V8.875H7.5H11H19C19.5523 8.875 20 9.32272 20 9.875V10H22V9.875C22 8.21815 20.6569 6.875 19 6.875H11.4556L9.85256 5.03146C9.28278 4.37623 8.45706 4 7.58874 4H5ZM8.34334 6.34382L8.80524 6.875H7.5H4.00774C4.06925 6.38171 4.49005 6 5 6H7.58874C7.87818 6 8.15342 6.12541 8.34334 6.34382Z" fill="#64748B"/>
<path d="M18.5 11C16.5702 11 15 12.615 15 14.5977C14.9873 17.498 18.367 19.9028 18.5 20C18.5 20 22.0127 17.498 22 14.6C22 12.6151 20.4298 11 18.5 11ZM18.5 16.4C17.5331 16.4 16.75 15.5945 16.75 14.6C16.75 13.6055 17.5331 12.8 18.5 12.8C19.4669 12.8 20.25 13.6055 20.25 14.6C20.25 15.5945 19.4669 16.4 18.5 16.4Z" fill="#FC5555"/>
</svg>
