<svg width="24" height="24" viewBox="0 0 24 24" fill="none" xmlns="http://www.w3.org/2000/svg">
<path fill-rule="evenodd" clip-rule="evenodd" d="M5 4C3.34315 4 2 5.34315 2 7V17C2 18.6569 3.34315 20 5 20H13V18H5C4.44772 18 4 17.5523 4 17V7C4 6.44772 4.44772 6 5 6H7.78388C8.01539 6 8.23973 6.08033 8.41862 6.22727L10.8119 8.19318C11.3486 8.63402 12.0216 8.875 12.7161 8.875H19C19.5523 8.875 20 9.32272 20 9.875V10H22V9.875C22 8.21815 20.6569 6.875 19 6.875H12.7161C12.4846 6.875 12.2603 6.79467 12.0814 6.64773L9.6881 4.68182C9.15142 4.24098 8.47841 4 7.78388 4H5Z" fill="#64748B"/>
<path d="M14.9 12.35C14.9 11.6044 15.5044 11 16.25 11C16.4985 11 16.7 11.2015 16.7 11.45C16.7 11.6985 16.4985 11.9 16.25 11.9C16.0015 11.9 15.8 12.1015 15.8 12.35V14.1223C15.8 14.477 15.6618 14.8057 15.4308 15.05C15.6618 15.2944 15.8 15.623 15.8 15.9777V17.75C15.8 17.9985 16.0015 18.2 16.25 18.2C16.4985 18.2 16.7 18.4015 16.7 18.65C16.7 18.8985 16.4985 19.1 16.25 19.1C15.5044 19.1 14.9 18.4956 14.9 17.75V15.9777C14.9 15.7712 14.7595 15.5912 14.5591 15.5411L14.3409 15.4865C14.1405 15.4365 14 15.2565 14 15.05C14 14.8435 14.1405 14.6635 14.3409 14.6135L14.5591 14.5589C14.7595 14.5088 14.9 14.3288 14.9 14.1223V12.35ZM22.1 12.35C22.1 11.6044 21.4956 11 20.75 11C20.5015 11 20.3 11.2015 20.3 11.45C20.3 11.6985 20.5015 11.9 20.75 11.9C20.9985 11.9 21.2 12.1015 21.2 12.35V14.1223C21.2 14.477 21.3382 14.8057 21.5692 15.05C21.3382 15.2944 21.2 15.623 21.2 15.9777V17.75C21.2 17.9985 20.9985 18.2 20.75 18.2C20.5015 18.2 20.3 18.4015 20.3 18.65C20.3 18.8985 20.5015 19.1 20.75 19.1C21.4956 19.1 22.1 18.4956 22.1 17.75V15.9777C22.1 15.7712 22.2405 15.5912 22.4409 15.5411L22.6591 15.4865C22.8595 15.4365 23 15.2565 23 15.05C23 14.8435 22.8595 14.6635 22.6591 14.6135L22.4409 14.5589C22.2405 14.5088 22.1 14.3288 22.1 14.1223V12.35Z" fill="#8B5CF6"/>
</svg>
