<svg width="24" height="24" viewBox="0 0 24 24" fill="none" xmlns="http://www.w3.org/2000/svg">
<g clip-path="url(#clip0_38523_373)">
<path fill-rule="evenodd" clip-rule="evenodd" d="M5 4C3.34315 4 2 5.34315 2 7V7.875V17C2 18.6569 3.34315 20 5 20H13V18H5C4.44772 18 4 17.5523 4 17V8.875H7.5H11H19C19.5523 8.875 20 9.32272 20 9.875V10H22V9.875C22 8.21815 20.6569 6.875 19 6.875H11.4556L9.85256 5.03146C9.28278 4.37623 8.45706 4 7.58874 4H5ZM8.34334 6.34382L8.80524 6.875H7.5H4.00774C4.06925 6.38171 4.49005 6 5 6H7.58874C7.87818 6 8.15342 6.12541 8.34334 6.34382Z" fill="#64748B"/>
<path d="M21.8042 11.6655C21.8443 11.6394 21.8788 11.6056 21.9058 11.566C21.9328 11.5264 21.9516 11.4819 21.9613 11.435C21.9709 11.3881 21.9712 11.3398 21.962 11.2928C21.9529 11.2458 21.9345 11.2011 21.9079 11.1612C21.8814 11.1214 21.8472 11.0872 21.8073 11.0607C21.7674 11.0341 21.7227 11.0158 21.6757 11.0066C21.6287 10.9975 21.5804 10.9978 21.5335 11.0075C21.4866 11.0172 21.4421 11.036 21.4025 11.063L19.9953 12.0015C19.739 11.8993 19.4655 11.8469 19.1896 11.847C18.9048 11.847 18.633 11.9016 18.3839 12.0015L16.9766 11.063C16.8967 11.011 16.7996 10.9926 16.7062 11.0118C16.6128 11.0311 16.5308 11.0863 16.4779 11.1656C16.425 11.245 16.4055 11.3419 16.4237 11.4355C16.4419 11.5291 16.4963 11.6118 16.575 11.6655L17.7143 12.4249C17.3715 12.7418 17.1399 13.1608 17.0539 13.6197C17.2687 13.5647 17.4896 13.5368 17.7114 13.5367H20.6683C20.8958 13.5373 21.1148 13.565 21.3253 13.6197C21.2393 13.1608 21.0077 12.7418 20.6649 12.4249L21.8042 11.6655ZM14 17.1573C14 17.0613 14.0381 16.9692 14.106 16.9013C14.1739 16.8334 14.266 16.7952 14.3621 16.7952H15.8103V16.1619C15.8103 15.7583 15.9358 15.3841 16.1502 15.0766L14.9515 14.5968C14.8643 14.5597 14.7952 14.49 14.7588 14.4025C14.7225 14.315 14.7219 14.2168 14.7571 14.1289C14.7924 14.0409 14.8606 13.9703 14.9473 13.9322C15.034 13.894 15.1322 13.8914 15.2209 13.9248L16.7348 14.5302C17.0296 14.3528 17.3674 14.2597 17.7114 14.2608H20.6678C21.025 14.2608 21.3591 14.3593 21.6444 14.5302L23.1583 13.9248C23.2026 13.9059 23.2503 13.8961 23.2985 13.8959C23.3466 13.8957 23.3944 13.9051 23.4389 13.9236C23.4834 13.9421 23.5237 13.9693 23.5576 14.0036C23.5914 14.0379 23.6181 14.0785 23.636 14.1233C23.654 14.168 23.6628 14.2158 23.662 14.264C23.6612 14.3122 23.6508 14.3597 23.6314 14.4038C23.612 14.4479 23.5839 14.4877 23.549 14.5208C23.514 14.554 23.4727 14.5798 23.4277 14.5968L22.229 15.0766C22.4514 15.3947 22.5701 15.7737 22.5688 16.1619V16.7952H24.0171C24.1131 16.7952 24.2052 16.8334 24.2731 16.9013C24.341 16.9692 24.3792 17.0613 24.3792 17.1573C24.3792 17.2533 24.341 17.3454 24.2731 17.4133C24.2052 17.4812 24.1131 17.5194 24.0171 17.5194H22.5688V17.64C22.5692 18.19 22.4353 18.7317 22.1788 19.2182L23.4277 19.7178C23.5168 19.7535 23.5882 19.8232 23.626 19.9115C23.6638 19.9998 23.6649 20.0996 23.6292 20.1887C23.5935 20.2779 23.5238 20.3492 23.4355 20.387C23.3472 20.4248 23.2475 20.426 23.1583 20.3903L21.7622 19.8313C21.2019 20.4891 20.4108 20.9074 19.5516 21V17.64C19.5516 17.544 19.5135 17.4519 19.4456 17.384C19.3777 17.3161 19.2856 17.278 19.1896 17.278C19.0936 17.278 19.0015 17.3161 18.9336 17.384C18.8657 17.4519 18.8275 17.544 18.8275 17.64V21C17.9684 20.9075 17.1774 20.4895 16.617 19.8317L15.2214 20.3898C15.1772 20.4075 15.13 20.4163 15.0824 20.4158C15.0349 20.4152 14.9879 20.4053 14.9442 20.3866C14.9004 20.3678 14.8608 20.3407 14.8276 20.3067C14.7943 20.2726 14.7681 20.2324 14.7504 20.1883C14.7328 20.1441 14.7239 20.0969 14.7245 20.0493C14.725 20.0018 14.735 19.9548 14.7537 19.911C14.7724 19.8673 14.7995 19.8277 14.8336 19.7945C14.8676 19.7612 14.9078 19.735 14.952 19.7173L16.2013 19.2177C15.9446 18.7314 15.8104 18.1899 15.8103 17.64V17.5194H14.3621C14.266 17.5194 14.1739 17.4812 14.106 17.4133C14.0381 17.3454 14 17.2533 14 17.1573Z" fill="#22C55E"/>
</g>
<defs>
<clipPath id="clip0_38523_373">
<rect width="24" height="24" fill="white"/>
</clipPath>
</defs>
</svg>
