<svg width="24" height="24" viewBox="0 0 24 24" fill="none" xmlns="http://www.w3.org/2000/svg">
<path d="M19.8709 8.35819C19.8304 8.31515 19.7873 8.27212 19.7443 8.23161C19.7013 8.1911 19.6608 8.14553 19.6177 8.10503C19.5747 8.06452 19.5342 8.01895 19.4911 7.97844C19.4481 7.93794 19.4076 7.89237 19.3646 7.85186C19.3215 7.81135 19.281 7.76578 19.238 7.72528C19.1949 7.68477 19.1544 7.6392 19.1114 7.59869C19.0684 7.55819 19.0279 7.51262 18.9848 7.47211C20.2406 8.70622 20.9599 10.3851 20.9874 12.1456C20.9874 16.3405 16.7291 19.7532 11.4936 19.7532C8.56199 19.7532 5.9392 18.6823 4.19489 17.0038L4.32147 17.1304L4.44805 17.257L4.57463 17.3836L4.70122 17.5101L4.8278 17.6367L4.95438 17.7633L5.08096 17.8899C6.82274 19.6393 9.50377 20.7659 12.5063 20.7659C17.7418 20.7659 22 17.3532 22 13.1709C22 11.3835 21.2304 9.68985 19.8709 8.35819Z" fill="black"/>
<path d="M20.3545 12.1455C20.3545 15.9962 16.3874 19.1177 11.4937 19.1177C6.60004 19.1177 2.63293 15.9962 2.63293 12.1455C2.63293 9.75819 4.15193 7.64932 6.48611 6.39868C8.8203 5.14804 10.2735 3.86702 11.4937 3.86702C12.714 3.86702 13.757 4.91259 16.5013 6.39868C18.8355 7.64932 20.3545 9.75819 20.3545 12.1455Z" fill="#FBF0DF"/>
<path d="M20.3545 12.1455C20.3533 11.6509 20.2852 11.1587 20.152 10.6822C19.4609 19.1127 9.17727 19.5177 5.13422 16.9962C6.9517 18.4049 9.19451 19.1531 11.4937 19.1177C16.3798 19.1177 20.3545 15.9911 20.3545 12.1455Z" fill="#F6DECE"/>
<path d="M8.08359 5.93538C9.21524 5.2569 10.719 3.98347 12.1975 3.98094C11.9701 3.90742 11.7328 3.869 11.4937 3.86702C10.8811 3.86702 10.2279 4.18347 9.40511 4.65943C9.11904 4.82652 8.82283 5.01133 8.50891 5.20373C7.91903 5.56829 7.24308 5.98095 6.48358 6.39361C4.07345 7.69742 2.63293 9.8468 2.63293 12.1455C2.63293 12.2468 2.63293 12.3481 2.63293 12.4468C4.16712 7.02653 6.95447 6.61387 8.08359 5.93538Z" fill="#FFFEFC"/>
<path fill-rule="evenodd" clip-rule="evenodd" d="M10.7646 4.50753C10.7681 5.10531 10.6426 5.69681 10.3966 6.24165C10.1507 6.78648 9.78999 7.27182 9.33927 7.66451C9.26839 7.7278 9.32408 7.84932 9.41522 7.81387C10.2684 7.48223 11.4203 6.48982 10.9342 4.48727C10.914 4.37335 10.7646 4.40373 10.7646 4.50753ZM11.3393 4.50753C11.649 5.01295 11.8459 5.57939 11.9162 6.168C11.9866 6.75661 11.9288 7.35348 11.7469 7.91767C11.7165 8.00628 11.8254 8.08223 11.8861 8.00881C12.4405 7.29995 12.9241 5.89234 11.476 4.37335C11.4026 4.30752 11.2886 4.40879 11.3393 4.4974V4.50753ZM12.038 4.46449C12.5231 4.80792 12.9289 5.25139 13.2281 5.76498C13.5272 6.27856 13.7128 6.85033 13.7722 7.44172C13.7696 7.46303 13.7754 7.48451 13.7882 7.50171C13.8011 7.5189 13.82 7.53049 13.8412 7.53407C13.8624 7.53765 13.8841 7.53295 13.9019 7.52094C13.9197 7.50893 13.9322 7.49054 13.9368 7.46957C14.1697 6.58602 14.038 5.07968 12.1216 4.2974C12.0203 4.25689 11.9545 4.3936 12.038 4.45436V4.46449ZM7.36458 7.09741C7.94161 6.92502 8.47587 6.63304 8.93256 6.24046C9.38926 5.84789 9.75815 5.36353 10.0152 4.81892C10.0608 4.72778 10.2051 4.76322 10.1823 4.86449C9.74434 6.88982 8.27851 7.31261 7.36711 7.25691C7.27091 7.25944 7.27344 7.12526 7.36458 7.09741Z" fill="#CCBEA7"/>
<path d="M11.4937 19.7532C6.25824 19.7532 2 16.3405 2 12.1455C2 9.61389 3.56456 7.25185 6.18483 5.83665C6.94432 5.43159 7.59496 5.02399 8.17471 4.66702C8.4937 4.46955 8.79496 4.28474 9.0861 4.11259C9.97471 3.58601 10.7342 3.2341 11.4937 3.2341C12.2532 3.2341 12.9165 3.5379 13.7469 4.02905C14 4.17335 14.2532 4.33031 14.5241 4.50247C15.1545 4.89234 15.8659 5.33285 16.8026 5.83665C19.4229 7.25185 20.9874 9.61136 20.9874 12.1455C20.9874 16.3405 16.7292 19.7532 11.4937 19.7532ZM11.4937 3.86702C10.881 3.86702 10.2279 4.18348 9.40509 4.65943C9.11901 4.82652 8.82281 5.01133 8.50888 5.20374C7.91901 5.5683 7.24306 5.98096 6.48356 6.39362C4.07343 7.69742 2.63291 9.8468 2.63291 12.1455C2.63291 15.9911 6.60761 19.1203 11.4937 19.1203C16.3798 19.1203 20.3545 15.9911 20.3545 12.1455C20.3545 9.8468 18.914 7.69742 16.5013 6.39868C15.5444 5.89235 14.7975 5.4164 14.1925 5.04171C13.9165 4.87209 13.6633 4.71513 13.433 4.57588C12.6659 4.12019 12.1064 3.86702 11.4937 3.86702Z" fill="black"/>
<path d="M13.2785 13.9937C13.1648 14.4595 12.9059 14.8771 12.5393 15.1861C12.264 15.4529 11.9077 15.6204 11.5266 15.6621C11.1341 15.627 10.7652 15.4591 10.481 15.1861C10.1181 14.8756 9.8629 14.4582 9.75191 13.9937C9.74823 13.9661 9.75091 13.9381 9.75975 13.9117C9.76859 13.8853 9.78335 13.8613 9.8029 13.8415C9.82244 13.8217 9.84627 13.8066 9.87253 13.7975C9.8988 13.7883 9.92682 13.7853 9.95444 13.7886H13.0785C13.1059 13.7857 13.1337 13.789 13.1596 13.7984C13.1855 13.8078 13.209 13.8229 13.2283 13.8426C13.2475 13.8624 13.2621 13.8862 13.2708 13.9124C13.2795 13.9385 13.2821 13.9663 13.2785 13.9937Z" fill="#B71422"/>
<path d="M10.481 15.2064C10.7647 15.4795 11.1322 15.649 11.5241 15.6874C11.9151 15.6484 12.2816 15.479 12.5646 15.2064C12.6551 15.122 12.7397 15.0315 12.8177 14.9355C12.6618 14.7585 12.4713 14.6154 12.2579 14.5148C12.0446 14.4142 11.813 14.3584 11.5772 14.3507C11.325 14.3566 11.078 14.4238 10.8575 14.5464C10.637 14.669 10.4496 14.8434 10.3114 15.0545C10.3696 15.1076 10.4203 15.1583 10.481 15.2064Z" fill="#FF6164"/>
<path d="M10.5215 15.0064C10.6471 14.8441 10.8077 14.7124 10.9914 14.6212C11.1752 14.53 11.3772 14.4817 11.5823 14.4798C11.9614 14.4909 12.3227 14.6436 12.595 14.9076C12.6532 14.8443 12.7089 14.7785 12.7621 14.7127C12.44 14.4059 12.0143 14.2315 11.5696 14.2241C11.332 14.2261 11.0977 14.2808 10.8837 14.3841C10.6697 14.4874 10.4811 14.6368 10.3317 14.8215C10.3915 14.8866 10.4549 14.9483 10.5215 15.0064Z" fill="black"/>
<path d="M11.5165 15.814C11.0946 15.777 10.6976 15.5986 10.3899 15.3076C9.99801 14.9762 9.72217 14.5283 9.60255 14.0291C9.59397 13.9847 9.59543 13.9389 9.60682 13.8951C9.61821 13.8513 9.63924 13.8106 9.66838 13.776C9.70307 13.7341 9.74688 13.7007 9.79646 13.6783C9.84604 13.6559 9.90008 13.6452 9.95445 13.6468H13.0785C13.1328 13.6457 13.1867 13.6567 13.2362 13.679C13.2857 13.7014 13.3295 13.7345 13.3646 13.776C13.3934 13.8107 13.4141 13.8515 13.4251 13.8953C13.436 13.9392 13.437 13.9849 13.4279 14.0291C13.3083 14.5283 13.0324 14.9762 12.6405 15.3076C12.3335 15.598 11.9375 15.7764 11.5165 15.814ZM9.95445 13.9405C9.91395 13.9405 9.90382 13.9582 9.90129 13.9633C10.0083 14.3961 10.2504 14.7836 10.5924 15.0696C10.8425 15.3161 11.1677 15.472 11.5165 15.5127C11.8643 15.4724 12.1892 15.3185 12.4405 15.0747C12.7815 14.7882 13.0227 14.4008 13.1291 13.9684C13.1236 13.9603 13.116 13.9539 13.107 13.9498C13.0981 13.9458 13.0882 13.9443 13.0785 13.9456L9.95445 13.9405Z" fill="black"/>
<path d="M15.3469 14.1506C16.1649 14.1506 16.8279 13.7607 16.8279 13.2797C16.8279 12.7988 16.1649 12.4088 15.3469 12.4088C14.529 12.4088 13.8659 12.7988 13.8659 13.2797C13.8659 13.7607 14.529 14.1506 15.3469 14.1506Z" fill="#FEBBD0"/>
<path d="M7.68359 14.1506C8.50154 14.1506 9.16461 13.7607 9.16461 13.2797C9.16461 12.7988 8.50154 12.4088 7.68359 12.4088C6.86565 12.4088 6.20258 12.7988 6.20258 13.2797C6.20258 13.7607 6.86565 14.1506 7.68359 14.1506Z" fill="#FEBBD0"/>
<path fill-rule="evenodd" clip-rule="evenodd" d="M8.37978 12.9304C8.65578 12.9309 8.92572 12.8495 9.15545 12.6965C9.38518 12.5435 9.56437 12.3258 9.67034 12.071C9.77631 11.8161 9.80429 11.5356 9.75075 11.2648C9.69722 10.9941 9.56456 10.7453 9.36958 10.5499C9.17459 10.3546 8.92604 10.2215 8.65538 10.1675C8.38472 10.1134 8.10411 10.1409 7.84907 10.2464C7.59403 10.3519 7.37602 10.5307 7.22263 10.7602C7.06924 10.9896 6.98737 11.2594 6.98737 11.5354C6.98737 11.9049 7.13398 12.2594 7.39504 12.5209C7.65609 12.7824 8.01025 12.9297 8.37978 12.9304ZM14.6507 12.9304C14.927 12.9324 15.1977 12.8523 15.4284 12.7002C15.6591 12.5482 15.8395 12.331 15.9466 12.0763C16.0538 11.8216 16.0828 11.5408 16.0302 11.2695C15.9775 10.9983 15.8454 10.7488 15.6508 10.5527C15.4561 10.3566 15.2076 10.2227 14.9367 10.1681C14.6658 10.1134 14.3848 10.1404 14.1294 10.2457C13.8739 10.351 13.6554 10.5298 13.5017 10.7594C13.348 10.989 13.2659 11.2591 13.2659 11.5354C13.2652 11.9038 13.4106 12.2575 13.6701 12.519C13.9297 12.7804 14.2823 12.9284 14.6507 12.9304Z" fill="black"/>
<path fill-rule="evenodd" clip-rule="evenodd" d="M7.94944 11.624C8.05319 11.6245 8.15476 11.5942 8.24127 11.5369C8.32779 11.4797 8.39535 11.398 8.4354 11.3023C8.47545 11.2066 8.48619 11.1011 8.46626 10.9993C8.44633 10.8975 8.39662 10.8039 8.32343 10.7303C8.25024 10.6568 8.15687 10.6066 8.05514 10.5862C7.95342 10.5658 7.84792 10.576 7.75201 10.6156C7.65611 10.6552 7.57411 10.7223 7.51641 10.8086C7.45872 10.8948 7.42792 10.9962 7.42792 11.1C7.42792 11.2385 7.48278 11.3714 7.58051 11.4696C7.67824 11.5678 7.81089 11.6234 7.94944 11.624ZM14.2203 11.624C14.3241 11.6245 14.4257 11.5942 14.5122 11.5369C14.5987 11.4797 14.6663 11.398 14.7063 11.3023C14.7464 11.2066 14.7571 11.1011 14.7372 10.9993C14.7172 10.8975 14.6675 10.8039 14.5943 10.7303C14.5211 10.6568 14.4278 10.6066 14.3261 10.5862C14.2243 10.5658 14.1188 10.576 14.0229 10.6156C13.927 10.6552 13.845 10.7223 13.7873 10.8086C13.7296 10.8948 13.6988 10.9962 13.6988 11.1C13.6988 11.2377 13.753 11.3698 13.8496 11.4679C13.9463 11.5659 14.0776 11.622 14.2153 11.624H14.2203Z" fill="white"/>
</svg>
