<svg width="24" height="24" viewBox="0 0 24 24" fill="none" xmlns="http://www.w3.org/2000/svg">
<path d="M12.5094 8.29406L10.4151 11.929H10.4009L8.32782 8.32956L12.5094 8.29406Z" fill="#83FF50" stroke="#83FF50" stroke-width="0.0709943" stroke-miterlimit="5.3333"/>
<mask id="mask0_24687_397" style="mask-type:luminance" maskUnits="userSpaceOnUse" x="2" y="4" width="12" height="5">
<path d="M13.9351 8.9483H2.68958V4H13.9351V8.9483Z" fill="white"/>
</mask>
<g mask="url(#mask0_24687_397)">
<g opacity="0.83">
<path d="M12.5275 8.27376L12.5204 8.28795H12.5133V8.29505L8.32469 8.33055V8.32345H4.12892L4.10052 8.27376L6.20906 4.62465H10.4261L12.5275 8.27376Z" fill="#96FF5B" fill-opacity="0.6471"/>
</g>
</g>
<path d="M12.519 8.28874L10.4246 11.9236H10.4175L12.5119 8.28874H12.519Z" fill="white"/>
<path d="M10.427 11.9761L10.4199 11.9903L8.31849 15.6252H4.10853L2 11.9761L4.10853 8.32695H4.12983L6.20286 11.9264H10.3986L10.427 11.9761Z" fill="#00D6FF" stroke="#00D6FF" stroke-width="0.0709943" stroke-miterlimit="5.3333"/>
<path d="M10.3978 11.9259H6.20916L4.12903 8.32646H8.32479L10.3978 11.9259Z" fill="#7DFFFF" stroke="#7DFFFF" stroke-width="0.0709943" stroke-miterlimit="5.3333"/>
<path d="M12.5404 15.5353L12.5759 15.5921H12.512L10.9146 15.6063L8.3233 15.6276L10.4247 11.9927H14.5921L12.5404 15.5353Z" fill="#32E6FF" stroke="#32E6FF" stroke-width="0.0709943" stroke-miterlimit="5.3333"/>
<mask id="mask1_24687_397" style="mask-type:luminance" maskUnits="userSpaceOnUse" x="7" y="10" width="9" height="11">
<path d="M15.7525 20.5133H7.2403V10.7729H15.7525V20.5133Z" fill="white"/>
</mask>
<g mask="url(#mask1_24687_397)">
<g opacity="0.86">
<path d="M14.69 19.1874L14.6261 19.2939H10.4161L8.30762 15.6448L8.31472 15.6306L10.4161 11.9957H10.4232L8.32182 15.6235L10.9131 15.6022L12.5176 15.588H12.5815L14.6474 19.1874H14.69Z" fill="#00D5FF" fill-opacity="0.5451"/>
</g>
</g>
<path d="M12.5403 15.5353L12.5758 15.5921H12.5119L10.4389 11.9926H14.5921L12.5403 15.5353Z" fill="#20E6FF" stroke="#20E6FF" stroke-width="0.0709943" stroke-miterlimit="5.3333"/>
<path d="M16.7072 15.5918H12.5753L12.5398 15.535L14.5844 11.9924H14.627L16.7072 15.5918Z" fill="#2AF0FF" stroke="#2AF0FF" stroke-width="0.0709943" stroke-miterlimit="5.3333"/>
<mask id="mask2_24687_397" style="mask-type:luminance" maskUnits="userSpaceOnUse" x="11" y="14" width="7" height="6">
<path d="M17.4351 19.7891H11.8833V14.997H17.4351V19.7891Z" fill="white"/>
</mask>
<g mask="url(#mask2_24687_397)">
<g opacity="0.95">
<path d="M16.7359 15.642L14.6913 19.1847H14.6487L12.5757 15.5924H16.7076L16.7359 15.642Z" fill="#29EFFF" fill-opacity="0.8"/>
</g>
</g>
<path d="M18.8365 11.9408L16.728 15.59H16.7067L14.6336 11.9905H10.4379L10.4095 11.9408L10.4166 11.9266L12.5109 8.29174V8.28464H16.728L18.801 11.8769L18.8365 11.9408Z" fill="#32F8B9" stroke="#32F8B9" stroke-width="0.0709943" stroke-miterlimit="5.3333"/>
<mask id="mask3_24687_397" style="mask-type:luminance" maskUnits="userSpaceOnUse" x="13" y="10" width="9" height="11">
<path d="M22 20.5133H13.573V10.709H22V20.5133Z" fill="white"/>
</mask>
<g mask="url(#mask3_24687_397)">
<g opacity="0.85">
<path d="M20.9416 15.5868L18.8331 19.2359L14.6231 19.2927L16.7103 15.6933L16.6819 15.6436H16.7032L18.8118 11.9945L18.7763 11.9377H18.8402L20.9416 15.5868Z" fill="#32F6B8" fill-opacity="0.5647"/>
</g>
</g>
</svg>
