<svg width="24" height="24" viewBox="0 0 24 24" fill="none" xmlns="http://www.w3.org/2000/svg">
<path d="M17.33 11.4002L12.3139 3.38404C12.17 3.14411 11.882 3 11.594 3C11.3059 3 11.042 3.14391 10.874 3.38404L5.85811 11.4002C5.85811 11.4002 5.85811 11.4241 5.83415 11.4241C4.70618 13.3441 4.73015 15.6961 5.85811 17.664C7.03418 19.728 9.24198 21 11.5699 21C13.8979 21 16.106 19.7279 17.2818 17.664C18.4098 15.6961 18.4337 13.3681 17.3057 11.4241C17.3299 11.4243 17.3299 11.4243 17.3299 11.4002H17.33ZM15.8659 16.8242C14.978 18.3601 13.346 19.3202 11.5939 19.3202C9.842 19.3202 8.21004 18.3603 7.32197 16.8242C6.48205 15.3842 6.48205 13.6802 7.27407 12.2881L11.5939 5.4239L15.8898 12.2881C16.706 13.6802 16.6821 15.3842 15.8659 16.8242H15.8659Z" fill="#A855F7"/>
</svg>
