<svg width="24" height="24" viewBox="0 0 24 24" fill="none" xmlns="http://www.w3.org/2000/svg">
<path d="M4.74589 4.09659C4.71107 4.13436 4.67478 4.17066 4.63996 4.20992C2.88003 6.1817 2.00006 8.85937 2.00006 12.2444C2.00006 15.5169 2.85559 18.0679 4.56219 19.9034H18.9431C20.8342 19.0501 22.0001 17.3628 22.0001 17.3628L19.669 15.4962L18.592 16.5184C17.9498 17.0909 17.9661 17.208 16.8773 17.8368C15.7699 18.3361 14.6255 18.5524 13.4448 18.5524C11.5819 18.5524 10.1686 17.879 9.20572 17.0272C8.25316 16.1754 7.7354 13.6859 7.65318 12.0793L20.5846 12.1289L20.449 11.0386C20.449 11.0386 19.8216 5.75801 18.5669 4.09659H4.74589ZM11.2345 4.72323C12.3938 4.72323 13.6196 5.11951 14.1685 5.81282C14.7166 6.50687 14.8581 7.04759 14.8892 8.42309H7.63689C7.71985 6.975 7.95984 6.34169 8.65389 5.68394C9.3472 5.02692 10.1575 4.72323 11.2345 4.72323Z" fill="#F87171"/>
</svg>
