<svg width="24" height="24" viewBox="0 0 24 24" fill="none" xmlns="http://www.w3.org/2000/svg">
<path fill-rule="evenodd" clip-rule="evenodd" d="M11.5 2.2467C6.20523 2.2467 1.91669 6.7217 1.91669 12.2467C1.91669 16.6717 4.65992 20.4092 8.46929 21.7342C8.94846 21.8217 9.12815 21.5217 9.12815 21.2592C9.12815 21.0217 9.11617 20.2342 9.11617 19.3967C6.70835 19.8592 6.08544 18.7842 5.89377 18.2217C5.78596 17.9342 5.31877 17.0467 4.91148 16.8092C4.57606 16.6217 4.0969 16.1592 4.8995 16.1467C5.65419 16.1342 6.19325 16.8717 6.37294 17.1717C7.23544 18.6842 8.61304 18.2592 9.16408 17.9967C9.24794 17.3467 9.4995 16.9092 9.77502 16.6592C7.64273 16.4092 5.4146 15.5467 5.4146 11.7217C5.4146 10.6342 5.78596 9.7342 6.3969 9.0342C6.30106 8.7842 5.96565 7.7592 6.49273 6.3842C6.49273 6.3842 7.29533 6.1217 9.12815 7.4092C9.89481 7.1842 10.7094 7.0717 11.524 7.0717C12.3386 7.0717 13.1531 7.1842 13.9198 7.4092C15.7526 6.1092 16.5552 6.3842 16.5552 6.3842C17.0823 7.7592 16.7469 8.7842 16.6511 9.0342C17.262 9.7342 17.6334 10.6217 17.6334 11.7217C17.6334 15.5592 15.3932 16.4092 13.261 16.6592C13.6084 16.9717 13.9078 17.5717 13.9078 18.5092C13.9078 19.8467 13.8959 20.9217 13.8959 21.2592C13.8959 21.5217 14.0755 21.8342 14.5547 21.7342C16.4572 21.064 18.1103 19.7882 19.2815 18.0862C20.4527 16.3843 21.0828 14.342 21.0834 12.2467C21.0834 6.7217 16.7948 2.2467 11.5 2.2467Z" fill="#71717A"/>
</svg>
