<svg width="24" height="24" viewBox="0 0 24 24" fill="none" xmlns="http://www.w3.org/2000/svg">
<path d="M11.0408 3.84172C11.4561 3.10584 12.5175 3.10584 12.9329 3.84172L15.1095 7.69864C15.3788 8.17588 15.8426 8.51231 16.3799 8.6206L20.7251 9.49627C21.5547 9.66344 21.8816 10.671 21.3098 11.2922L18.3098 14.5516C18.1264 14.7508 17.988 14.9872 17.9043 15.2448C17.8205 15.5023 17.7932 15.7748 17.8243 16.0438L18.3332 20.4419C18.4302 21.28 17.5726 21.9039 16.8026 21.552L12.7718 19.7094C12.5255 19.5968 12.2577 19.5385 11.9869 19.5385C11.716 19.5385 11.4483 19.5968 11.2019 19.7094L7.17119 21.552C6.40119 21.9038 5.54361 21.28 5.64051 20.4419L6.14944 16.0438C6.21243 15.4995 6.03518 14.9548 5.66403 14.5516L2.66395 11.2922C2.09214 10.671 2.41905 9.66345 3.24862 9.49627L7.59387 8.6206C8.1312 8.51231 8.59497 8.17588 8.86426 7.69864L11.0408 3.84172Z" fill="#F472B6"/>
<path d="M11.9869 2.90228C11.4792 2.90228 10.9716 3.14982 10.6922 3.64494L8.51559 7.50186C8.30339 7.87789 7.93842 8.14271 7.5148 8.22808L3.16955 9.10374C2.05453 9.32845 1.59993 10.7275 2.36935 11.5634L5.36944 14.8228C5.51391 14.9796 5.62285 15.1658 5.68881 15.3686C5.75478 15.5713 5.77623 15.786 5.75168 15.9978L5.24277 20.3959C5.1122 21.5242 6.30263 22.3892 7.33766 21.9162L7.33768 21.9161L11.3685 20.0736L11.3685 20.0736C11.5626 19.9848 11.7735 19.9388 11.9869 19.9388C12.2004 19.9388 12.4113 19.9848 12.6054 20.0736L12.6054 20.0736L16.6362 21.9161C17.6711 22.3893 18.8616 21.5243 18.731 20.3959L18.731 20.3959L18.2222 15.9978V15.9978C18.1976 15.7859 18.219 15.5713 18.285 15.3685C18.351 15.1658 18.4599 14.9796 18.6044 14.8228L18.6044 14.8227L21.6044 11.5633V11.5633C22.3738 10.7273 21.9193 9.32831 20.8042 9.10356L16.459 8.2279C16.0354 8.14254 15.6704 7.87771 15.4582 7.50171L13.2816 3.64469C13.0022 3.14959 12.4945 2.90205 11.9868 2.90205M11.9868 3.67716C12.2175 3.67716 12.4482 3.79755 12.5841 4.03834L14.7607 7.89526C15.0871 8.47373 15.6497 8.88178 16.3007 9.01298L20.6459 9.88864C21.1901 9.9983 21.3893 10.6143 21.0151 11.0209L18.0151 14.2803C17.5652 14.769 17.3502 15.43 17.4265 16.0897L17.9354 20.4878C17.9988 21.0355 17.474 21.4185 16.9691 21.1876H16.9691L12.9382 19.3451C12.3342 19.0689 11.6393 19.0689 11.0353 19.3451L7.00456 21.1877C6.49954 21.4184 5.97483 21.0355 6.03815 20.4879L6.54709 16.0898C6.62344 15.4299 6.40833 14.769 5.95851 14.2803L2.95843 11.0209C2.58424 10.6144 2.78348 9.9984 3.32757 9.88868L7.67283 9.01299C8.32386 8.88179 8.88646 8.47375 9.21291 7.89527V7.89525L11.3895 4.03833C11.5254 3.79756 11.7561 3.67717 11.9867 3.67717" fill="#151515"/>
<path d="M10.7665 14.5311L10.7665 14.5311C10.7513 14.4537 10.7515 14.3741 10.7671 14.2968C10.7826 14.2195 10.8133 14.146 10.8573 14.0805C10.9012 14.0151 10.9577 13.9589 11.0233 13.9153C11.089 13.8716 11.1626 13.8413 11.24 13.8261L10.7665 14.5311ZM10.7665 14.5311C10.798 14.6914 10.8608 14.8439 10.9512 14.98L10.9512 14.98M10.7665 14.5311L10.9512 14.98M10.9512 14.98C11.0417 15.1161 11.1581 15.233 11.2939 15.3241M10.9512 14.98L11.2939 15.3241M12.1891 14.4266C12.2068 14.4002 12.2192 14.3706 12.2254 14.3395C12.2358 14.2879 12.2562 14.2389 12.2855 14.1952C12.3147 14.1516 12.3523 14.1141 12.3961 14.0849C12.4399 14.0558 12.489 14.0355 12.5406 14.0254L12.1891 14.4266ZM12.1891 14.4266C12.1714 14.4531 12.1484 14.4761 12.1218 14.4937L12.1891 14.4266ZM12.0294 14.3001C12.0449 14.2228 12.0754 14.1493 12.1193 14.0838C12.1633 14.0184 12.2196 13.9622 12.2853 13.9185C12.3509 13.8747 12.4245 13.8444 12.5019 13.8291C12.5792 13.8139 12.6588 13.814 12.7361 13.8295L12.7362 13.8295C12.8923 13.8609 13.0296 13.9529 13.1178 14.0855C13.2061 14.218 13.2381 14.3802 13.2067 14.5363C13.1746 14.6967 13.1111 14.849 13.0199 14.9848C13.0199 14.9848 13.0199 14.9848 13.0198 14.9848L12.8538 14.8733L12.0294 14.3001ZM12.0294 14.3001C12.0283 14.3054 12.0262 14.3105 12.0231 14.315L12.023 14.3152C12.0197 14.3201 12.0155 14.3243 12.0111 14.3272C12.0065 14.3303 12.0013 14.3324 11.9958 14.3335L11.9957 14.3335C11.9898 14.3346 11.9839 14.3346 11.9784 14.3335L12.0294 14.3001ZM11.4053 15.158C11.519 15.2344 11.6468 15.2877 11.7811 15.3147C11.9154 15.3417 12.0541 15.342 12.1885 15.3156L11.1178 14.8693C11.1937 14.9834 11.2914 15.0816 11.4053 15.158ZM11.4053 15.158L11.2939 15.3241M11.4053 15.158L11.2938 15.324C11.2938 15.324 11.2938 15.324 11.2939 15.3241M11.2939 15.3241C11.4294 15.415 11.5815 15.4785 11.7416 15.5108L11.7418 15.5108C11.9017 15.5429 12.0668 15.5433 12.2271 15.5119L11.2939 15.3241ZM11.9449 14.2996C11.946 14.3051 11.9482 14.3105 11.9513 14.3152L11.7848 14.4259L11.9449 14.2996ZM11.9449 14.2996C11.9297 14.2222 11.8994 14.1486 11.8558 14.083M11.9449 14.2996L11.8558 14.083M11.8558 14.083C11.8121 14.0173 11.756 13.9609 11.6905 13.9169M11.8558 14.083L11.6905 13.9169M11.6905 13.9169C11.6251 13.8729 11.5516 13.8423 11.4743 13.8267M11.6905 13.9169L11.4743 13.8267M11.4743 13.8267C11.397 13.8111 11.3174 13.8109 11.24 13.8261L11.4743 13.8267ZM8.76905 13.958C9.31392 13.958 9.75562 13.5163 9.75562 12.9714C9.75562 12.4266 9.31392 11.9849 8.76905 11.9849C8.22419 11.9849 7.78248 12.4266 7.78248 12.9714C7.78248 13.5163 8.22419 13.958 8.76905 13.958ZM15.2044 13.958C15.7493 13.958 16.191 13.5163 16.191 12.9714C16.191 12.4266 15.7493 11.9849 15.2044 11.9849C14.6595 11.9849 14.2178 12.4266 14.2178 12.9714C14.2178 13.5163 14.6595 13.958 15.2044 13.958Z" fill="#151515" stroke="black" stroke-width="0.4"/>
</svg>
