<svg width="24" height="24" viewBox="0 0 24 24" fill="none" xmlns="http://www.w3.org/2000/svg">
<path d="M16.6665 12.3833C16.347 12.3771 16.0334 12.4702 15.769 12.6496C15.5045 12.8291 15.3022 13.0861 15.1898 13.3853C15.3759 13.1067 15.6515 12.9 15.971 12.7993C16.2905 12.6985 16.6348 12.7097 16.947 12.831C17.244 12.9518 17.6348 13.1475 17.9445 13.0433C17.7992 12.8397 17.6075 12.6736 17.3853 12.5589C17.163 12.4441 16.9167 12.3839 16.6665 12.3833ZM19.209 13.179C18.9278 13.0815 18.609 12.9713 18.3773 12.6683C18.3323 12.6083 18.2903 12.5408 18.2453 12.4695C18.1449 12.2844 18.009 12.1208 17.8455 11.988C17.625 11.826 17.3355 11.7465 16.9605 11.7465C16.5919 11.7466 16.2316 11.8562 15.9254 12.0612C15.6191 12.2663 15.3805 12.5577 15.2401 12.8985C15.4182 12.6506 15.6583 12.4537 15.9363 12.3277C16.2144 12.2016 16.5207 12.1508 16.8245 12.1802C17.1284 12.2097 17.4192 12.3184 17.6679 12.4956C17.9166 12.6727 18.1144 12.912 18.2415 13.1895C18.3049 13.2935 18.4002 13.3741 18.5133 13.4193C18.6263 13.4645 18.751 13.4717 18.8685 13.44C19.2383 13.3613 19.2135 13.71 19.7708 13.8285V13.7288C19.7685 13.3943 19.587 13.3163 19.209 13.179ZM20.727 14.1285C20.8088 14.0788 20.8759 14.0084 20.9216 13.9243C20.9673 13.8403 20.99 13.7456 20.9873 13.65C20.9798 11.4323 19.1798 9.53479 16.9598 9.53479C16.2925 9.53424 15.6355 9.69971 15.048 10.0163C14.4606 10.3329 13.9611 10.7906 13.5946 11.3483C13.5871 11.3288 12.4531 9.55579 12.4411 9.53479H9.70734L12.3046 13.602L9.77034 17.592H12.4253L13.5803 15.8175L14.7563 17.592H17.412L15.0046 13.803C14.9647 13.7292 14.9431 13.6469 14.9416 13.563C14.9415 13.298 14.9936 13.0356 15.0949 12.7907C15.1963 12.5459 15.3448 12.3234 15.5322 12.136C15.7195 11.9485 15.942 11.7999 16.1868 11.6984C16.4316 11.597 16.694 11.5448 16.959 11.5448C18.075 11.5448 18.2618 12.2123 18.5025 12.5258C18.978 13.1453 19.9275 12.8738 19.9275 13.6815C19.9292 13.7742 19.9552 13.8647 20.0028 13.9442C20.0504 14.0237 20.118 14.0894 20.1989 14.1346C20.2798 14.1798 20.3711 14.203 20.4638 14.202C20.5564 14.2009 20.6472 14.1756 20.727 14.1285ZM20.9895 14.2283C20.8598 14.5073 20.5695 14.4818 20.4233 14.7075C20.2913 14.9108 20.5088 15.0165 20.5088 15.0165C20.5088 15.0165 20.7615 15.1335 20.9123 14.7833C20.9903 14.61 21.0173 14.4173 20.9895 14.2283Z" fill="#64748B"/>
<path fill-rule="evenodd" clip-rule="evenodd" d="M9.21419 16.6025L11.119 13.6035L9.7057 11.3903L9.70364 13.0327L5.76842 6.40802H3.00018V17.592H5.73767L5.74667 10.9755L9.21419 16.6025ZM12.4493 8.53479C12.4496 8.15501 12.4483 7.69113 12.4473 7.29361V7.29357V7.29355C12.446 6.80804 12.4449 6.42152 12.4471 6.40802H9.70964C9.71039 6.43015 9.70945 7.13859 9.70852 7.84663C9.7082 8.08477 9.70788 8.32287 9.70763 8.53479H12.4493Z" fill="#64748B"/>
</svg>
